<svg width="138" height="138" viewBox="0 0 138 138" fill="none" xmlns="http://www.w3.org/2000/svg">
<g filter="url(#filter0_i_104_17)">
<rect width="138" height="138" rx="34" fill="#279FEC"/>
</g>
<path fill-rule="evenodd" clip-rule="evenodd" d="M72.8096 27L72.9113 27H93.438L93.4897 27C93.941 27 94.37 26.9999 94.7367 27.0319C95.1451 27.0675 95.5774 27.1489 96.0154 27.367C96.1347 27.4264 96.2505 27.4926 96.3623 27.5652C96.7726 27.8319 97.0621 28.163 97.3002 28.4967C97.5139 28.7964 97.7316 29.166 97.9607 29.5549L97.987 29.5994L110.032 50.0394L110.084 50.1282C110.738 51.2369 111.304 52.1976 111.643 52.9991C111.991 53.8241 112.259 54.8378 111.817 55.8741C111.711 56.1227 111.576 56.3581 111.416 56.5756C110.748 57.4829 109.739 57.7667 108.851 57.8851C107.988 58.0002 106.873 58.0001 105.586 58L105.483 58H103.37L108.446 66.2847C108.971 67.1417 109.234 67.5702 109.273 68.0448C109.279 68.1216 109.281 68.1987 109.279 68.2757C109.263 68.7516 109.022 69.1924 108.539 70.0742L102.186 81.6841L105.834 81.8001L105.936 81.8033H105.936C107.169 81.8424 108.242 81.8765 109.074 82.0145C109.936 82.1575 110.903 82.4648 111.541 83.3559C111.695 83.5714 111.824 83.8037 111.926 84.0484C112.347 85.0601 112.098 86.0443 111.765 86.8521C111.444 87.6311 110.907 88.5613 110.29 89.6292L110.29 89.6294L110.239 89.7174L99.9758 107.494L99.95 107.539C99.7243 107.93 99.5099 108.301 99.2989 108.603C99.0638 108.939 98.7772 109.272 98.3693 109.543C98.2582 109.616 98.143 109.684 98.0242 109.744C97.5881 109.966 97.1566 110.051 96.7485 110.09C96.3821 110.126 95.9532 110.129 95.5019 110.133L95.4502 110.134L71.7261 110.345L71.623 110.346H71.6228C70.336 110.358 69.221 110.368 68.3575 110.26C67.4688 110.15 66.4569 109.875 65.7806 108.974C65.6184 108.758 65.4818 108.523 65.3735 108.276C64.9219 107.243 65.1809 106.227 65.5222 105.399C65.8538 104.595 66.4114 103.629 67.0549 102.515L67.1065 102.425L67.8984 101.054L57.4805 101.36C56.4758 101.39 55.9735 101.404 55.5423 101.202C55.4725 101.17 55.4046 101.133 55.3391 101.093C54.9341 100.842 54.6715 100.414 54.1464 99.5566L47.6305 88.9228L46.0817 91.3608L46.0272 91.4466C45.366 92.4876 44.79 93.3944 44.2481 94.0396C43.6861 94.7087 42.929 95.385 41.8373 95.4801C41.5733 95.5032 41.3076 95.4961 41.0452 95.4592C39.9601 95.3064 39.2399 94.591 38.7141 93.8931C38.207 93.2201 37.6798 92.2841 37.0746 91.2096L37.0247 91.1211L26.9498 73.2369L26.9245 73.1919C26.7029 72.7987 26.4923 72.4249 26.3402 72.0898C26.1708 71.7164 26.0295 71.2999 26.0045 70.8112C25.9978 70.6781 25.9986 70.5447 26.007 70.4117C26.0379 69.9233 26.1843 69.5085 26.3583 69.1373C26.5145 68.804 26.7296 68.4329 26.9559 68.0425L26.9819 67.9977L38.8786 47.4711L38.9303 47.3818C39.5755 46.2684 40.1346 45.3035 40.6667 44.615C41.2143 43.9063 41.9659 43.1752 43.086 43.052C43.3546 43.0225 43.6257 43.0241 43.894 43.057C45.0124 43.1939 45.7551 43.9341 46.294 44.6494C46.8175 45.3443 47.3647 46.3158 47.9962 47.4369L47.9963 47.437L47.9964 47.4372L47.9964 47.4373L48.047 47.5272L48.3744 48.1083L52.8026 40.0162C53.28 39.1439 53.5186 38.7078 53.906 38.4388C53.9687 38.3952 54.0338 38.3553 54.1011 38.3192C54.5166 38.0963 55.0136 38.0816 56.0075 38.0524L69.7965 37.647L68.2571 34.7733L68.209 34.6837L68.209 34.6836L68.209 34.6835L68.2089 34.6834C67.6265 33.5965 67.1193 32.6497 66.8231 31.861C66.516 31.0429 66.2984 30.0514 66.7513 29.0535C66.8608 28.8122 66.9973 28.5842 67.1583 28.3737C67.824 27.5033 68.8008 27.2269 69.667 27.1113C70.5022 26.9998 71.5764 26.9999 72.8096 27ZM105.483 55H101.531L91.6696 38.9054C91.1444 38.0484 90.8819 37.6198 90.4768 37.3695C90.4113 37.329 90.3434 37.2923 90.2737 37.2596C89.8425 37.0576 89.3401 37.0724 88.3354 37.102L73.1471 37.5485L70.9015 33.3567C70.257 32.1536 69.8489 31.385 69.6317 30.8066C69.5083 30.4777 69.4925 30.3249 69.4928 30.2732C69.5032 30.2528 69.5149 30.2331 69.528 30.2143C69.5734 30.1897 69.7156 30.1314 70.0638 30.0849C70.6762 30.0032 71.5464 30 72.9113 30H93.438C93.9595 30 94.2555 30.0013 94.476 30.0206C94.575 30.0292 94.6286 30.0394 94.6557 30.046C94.6684 30.0491 94.6749 30.0513 94.6768 30.052L94.6779 30.0524L94.6781 30.0524L94.6782 30.0525C94.6952 30.061 94.7117 30.0704 94.7276 30.0808L94.7277 30.0808L94.7287 30.0816C94.7303 30.0829 94.7354 30.0873 94.7446 30.0968C94.764 30.1168 94.8 30.1578 94.8577 30.2386C94.9862 30.4188 95.1376 30.6732 95.4023 31.1225L107.447 51.5625C108.168 52.7859 108.628 53.5726 108.879 54.167C109.023 54.5057 109.045 54.665 109.047 54.7194C109.038 54.7388 109.027 54.7577 109.015 54.7757C108.967 54.8017 108.818 54.8628 108.454 54.9114C107.814 54.9968 106.903 55 105.483 55ZM88.4236 40.1007L74.73 40.5033L81.8515 53.7967C82.1089 54.2771 82.2567 54.55 82.384 54.7435C82.4411 54.8305 82.4773 54.8746 82.4969 54.8961L82.5034 54.9031L82.5064 54.9061C82.5098 54.9096 82.5119 54.9115 82.5128 54.9122L82.5137 54.913C82.53 54.9241 82.5469 54.9343 82.5644 54.9434L82.5649 54.9436L82.5657 54.9439L82.5704 54.9455C82.574 54.9467 82.5795 54.9483 82.5874 54.9503C82.6156 54.9574 82.6716 54.9685 82.7752 54.9778C83.0059 54.9986 83.3162 55 83.8613 55H98.0131L89.1116 40.4728C89.0187 40.3212 88.9422 40.1965 88.8749 40.0884C88.7475 40.0912 88.6013 40.0954 88.4236 40.1007ZM79.2071 55.2133L71.3794 40.6018L57.857 40.9993L73.2445 67.5H105.672L99.8513 58H83.8613L83.8075 58C83.3354 58.0001 82.8876 58.0001 82.5058 57.9657C82.0808 57.9274 81.631 57.8397 81.1788 57.6042C81.056 57.5403 80.937 57.4691 80.8226 57.391C80.4015 57.1036 80.1119 56.7485 79.8774 56.392C79.6668 56.0717 79.4555 55.6771 79.2326 55.261L79.2326 55.2609L79.2325 55.2608L79.2325 55.2607L79.2071 55.2133ZM71.0783 69.7439L55.8566 96.6057L49.4215 86.1036L58.5158 71.7882L58.5447 71.7428L58.5447 71.7427C58.7979 71.3443 59.038 70.9663 59.2137 70.6256C59.4092 70.2464 59.5765 69.8197 59.6202 69.3118C59.6321 69.1738 59.6357 69.0352 59.6312 68.8967C59.6144 68.3872 59.47 67.9523 59.2948 67.5632C59.1374 67.2137 58.9175 66.8235 58.6858 66.4122L58.6594 66.3654L50.1091 51.1876L55.0554 42.1488L71.0783 69.7439ZM74.098 70.5L58.3255 98.3339L69.6611 98.0007L77.9174 83.7004L77.9443 83.6539L77.9443 83.6537L77.9444 83.6536L77.9446 83.6533C78.1805 83.2446 78.4042 82.857 78.6249 82.5437C78.8705 82.1948 79.1713 81.8491 79.6013 81.5752C79.7182 81.5008 79.8393 81.4334 79.9641 81.3734C80.4236 81.1524 80.876 81.0791 81.3019 81.0543C81.6846 81.032 82.1322 81.0463 82.6041 81.0614L82.6578 81.0631L98.8245 81.5772L104.886 70.5L74.098 70.5ZM45.4333 48.9996L46.6778 51.2088L37.2769 68.3878C36.7944 69.2696 36.5531 69.7104 36.5373 70.1863C36.5347 70.2634 36.5366 70.3404 36.543 70.4172C36.5821 70.8918 36.8447 71.3203 37.3698 72.1773L45.8855 86.075L43.5495 89.7521C42.8176 90.9042 42.3483 91.637 41.9509 92.1101C41.7249 92.3791 41.5996 92.4678 41.5544 92.4929C41.5315 92.4939 41.5086 92.4933 41.4858 92.4911C41.442 92.4637 41.3215 92.3684 41.1101 92.0878C40.7383 91.5944 40.3084 90.8378 39.6385 89.6486L29.5636 71.7644C29.3076 71.3101 29.1635 71.0515 29.072 70.85C29.031 70.7595 29.0136 70.7078 29.006 70.681C29.0024 70.6684 29.0012 70.6617 29.0009 70.6596L29.0007 70.6584L29.0007 70.6583L29.0006 70.6582L29.0006 70.6582C28.9997 70.6392 28.9998 70.6202 29.001 70.6012L29.001 70.6011L29.0012 70.5999L29.0025 70.5941L29.0039 70.5885L29.0066 70.5786C29.0145 70.5518 29.0326 70.5004 29.0747 70.4104C29.1686 70.21 29.3159 69.9533 29.5774 69.5021L41.4741 48.9754C42.1862 47.7468 42.6459 46.96 43.0405 46.4494C43.2654 46.1584 43.3929 46.0602 43.4393 46.0319C43.4609 46.0306 43.4826 46.0308 43.5042 46.0323C43.5503 46.0612 43.6766 46.1609 43.8979 46.4546C44.2862 46.9701 44.7363 47.7624 45.4333 48.9996ZM39.9278 70.6099L47.6765 83.2558L55.9836 70.1795C56.2759 69.7194 56.4411 69.4567 56.5473 69.2508C56.5949 69.1584 56.6156 69.1052 56.6248 69.0776C56.629 69.0646 56.6306 69.0578 56.631 69.0558L56.6312 69.0546C56.6329 69.035 56.6334 69.0153 56.6328 68.9955L56.6327 68.995L56.6326 68.9942C56.6324 68.993 56.6319 68.9902 56.6309 68.9854C56.6301 68.982 56.629 68.9776 56.6275 68.9721C56.6199 68.9441 56.602 68.8899 56.5593 68.795C56.4642 68.5838 56.3131 68.3127 56.0456 67.8378L48.4125 54.2881L39.9086 69.828C39.8233 69.984 39.7531 70.1123 39.6928 70.2245C39.7585 70.3336 39.8349 70.4583 39.9278 70.6099ZM69.7046 103.925L71.4223 100.95L89.8084 100.41C90.8024 100.38 91.2993 100.366 91.7148 100.143C91.7821 100.107 91.8473 100.067 91.91 100.023C92.2973 99.7543 92.5359 99.3181 93.0133 98.4458L100.571 84.6343L105.739 84.7986C107.103 84.842 107.973 84.8728 108.582 84.974C108.929 85.0315 109.069 85.0942 109.114 85.1203C109.126 85.1395 109.137 85.1596 109.147 85.1803C109.146 85.232 109.125 85.3842 108.991 85.709C108.756 86.2802 108.324 87.0354 107.641 88.2174L97.3777 105.994C97.117 106.446 96.9678 106.701 96.8409 106.883C96.784 106.964 96.7484 107.005 96.7291 107.026C96.72 107.035 96.7149 107.04 96.7133 107.041L96.7124 107.042L96.7123 107.042L96.7122 107.042C96.6964 107.052 96.6799 107.062 96.663 107.071L96.6629 107.071L96.6617 107.071L96.6582 107.072C96.6548 107.073 96.6491 107.075 96.6407 107.077C96.6136 107.084 96.5601 107.095 96.4613 107.104C96.2409 107.125 95.9449 107.129 95.4235 107.134L71.6994 107.345C70.2794 107.358 69.3682 107.363 68.7278 107.283C68.3629 107.238 68.2135 107.178 68.1655 107.153C68.1534 107.135 68.1424 107.116 68.1328 107.096C68.1342 107.042 68.1557 106.883 68.2958 106.543C68.5417 105.946 68.9946 105.155 69.7046 103.925ZM90.3816 97.0057L97.21 84.5274L82.5625 84.0616C82.0177 84.0442 81.7075 84.0358 81.4762 84.0492C81.3723 84.0553 81.316 84.0645 81.2876 84.0708C81.2759 84.0733 81.2693 84.0753 81.2666 84.0762L81.2657 84.0765L81.2646 84.0769C81.2468 84.0854 81.2296 84.095 81.2129 84.1056L81.2125 84.1059L81.2119 84.1064C81.2103 84.1077 81.205 84.1123 81.1955 84.122C81.1752 84.1429 81.1376 84.1859 81.0777 84.2709C80.9444 84.4604 80.788 84.7284 80.5155 85.2004L73.1851 97.897L89.7203 97.4109C89.896 97.4057 90.0406 97.4014 90.1664 97.3968C90.2277 97.2868 90.2972 97.16 90.3816 97.0057ZM69.5103 30.2262C69.5098 30.226 69.513 30.223 69.5217 30.2179C69.5151 30.2239 69.5108 30.2265 69.5103 30.2262ZM69.4949 30.2519C69.4953 30.2523 69.4951 30.2573 69.4929 30.2659C69.4934 30.2559 69.4945 30.2516 69.4949 30.2519ZM109.034 54.7631C109.035 54.7633 109.031 54.7663 109.023 54.7714C109.029 54.7655 109.033 54.7629 109.034 54.7631ZM109.046 54.742C109.046 54.7417 109.046 54.7368 109.047 54.7282C109.047 54.738 109.047 54.7423 109.046 54.742ZM109.146 85.159C109.146 85.1586 109.147 85.163 109.147 85.173C109.146 85.1688 109.146 85.1654 109.146 85.163C109.145 85.1605 109.145 85.1591 109.146 85.159ZM109.131 85.1328C109.131 85.133 109.126 85.1303 109.12 85.1241L109.126 85.1283C109.13 85.1311 109.131 85.1327 109.131 85.1328ZM68.1342 107.119C68.1338 107.119 68.1329 107.115 68.1327 107.105L68.1338 107.111C68.1346 107.116 68.1346 107.119 68.1342 107.119ZM68.1465 107.14C68.147 107.14 68.1512 107.142 68.1577 107.148C68.1493 107.143 68.146 107.14 68.1465 107.14ZM41.5049 92.5007C41.505 92.5013 41.5007 92.4999 41.492 92.4949C41.5005 92.4977 41.5048 92.5002 41.5049 92.5007ZM41.5348 92.5015C41.5349 92.501 41.5394 92.4987 41.548 92.4964C41.539 92.5009 41.5347 92.5021 41.5348 92.5015ZM43.484 46.0221C43.4839 46.0215 43.4881 46.0229 43.4966 46.0278C43.4884 46.025 43.4841 46.0226 43.484 46.0221ZM43.4597 46.0219C43.4596 46.0224 43.4553 46.0248 43.447 46.0274C43.4555 46.0227 43.4597 46.0214 43.4597 46.0219Z" fill="white"/>
<path d="M72.9113 27L72.9113 27.5H72.9113V27ZM72.8096 27L72.8096 27.5H72.8096L72.8096 27ZM93.438 27V27.5H93.4381L93.438 27ZM93.4897 27L93.4897 27.5H93.4897L93.4897 27ZM94.7367 27.0319L94.7801 26.5338L94.7367 27.0319ZM96.0154 27.367L96.2383 26.9194V26.9194L96.0154 27.367ZM96.3623 27.5652L96.0898 27.9845L96.0898 27.9845L96.3623 27.5652ZM97.3002 28.4967L96.8931 28.7871L96.8931 28.7871L97.3002 28.4967ZM97.9607 29.5549L97.5299 29.8087L97.5299 29.8087L97.9607 29.5549ZM97.987 29.5994L97.5562 29.8532L97.5562 29.8532L97.987 29.5994ZM110.032 50.0394L109.601 50.2932L109.601 50.2933L110.032 50.0394ZM110.084 50.1282L109.654 50.3821V50.3821L110.084 50.1282ZM111.643 52.9991L112.103 52.8045V52.8045L111.643 52.9991ZM111.817 55.8741L111.357 55.6778V55.6778L111.817 55.8741ZM111.416 56.5756L111.014 56.2791V56.2791L111.416 56.5756ZM108.851 57.8851L108.917 58.3807L108.851 57.8851ZM105.586 58L105.586 57.5H105.586L105.586 58ZM105.483 58L105.483 57.5H105.483V58ZM103.37 58V57.5H102.477L102.943 58.2612L103.37 58ZM108.446 66.2847L108.02 66.5459V66.5459L108.446 66.2847ZM109.273 68.0448L109.771 68.0037V68.0037L109.273 68.0448ZM109.279 68.2757L108.779 68.2591L109.279 68.2757ZM108.539 70.0742L108.978 70.3142L108.539 70.0742ZM102.186 81.6841L101.747 81.4441L101.356 82.158L102.17 82.1838L102.186 81.6841ZM105.834 81.8001L105.818 82.2999H105.819L105.834 81.8001ZM105.936 81.8033L105.92 82.3031L105.928 82.3033H105.936V81.8033ZM105.936 81.8033L105.952 81.3036L105.944 81.3033H105.936V81.8033ZM109.074 82.0145L109.155 81.5212H109.155L109.074 82.0145ZM111.541 83.3559L111.134 83.6469V83.6469L111.541 83.3559ZM111.926 84.0484L111.464 84.2404V84.2405L111.926 84.0484ZM111.765 86.8521L112.227 87.0427V87.0426L111.765 86.8521ZM110.29 89.6292L110.721 89.8827L110.723 89.8792L110.29 89.6292ZM110.29 89.6294L109.859 89.3759L109.857 89.3794L110.29 89.6294ZM110.239 89.7174L109.806 89.4674L109.806 89.4674L110.239 89.7174ZM99.9758 107.494L99.5428 107.244L99.5428 107.244L99.9758 107.494ZM99.95 107.539L99.5169 107.289L99.5169 107.289L99.95 107.539ZM99.2989 108.603L98.8892 108.316H98.8892L99.2989 108.603ZM98.3693 109.543L98.0931 109.126L98.0931 109.126L98.3693 109.543ZM98.0242 109.744L98.2511 110.19L98.2511 110.19L98.0242 109.744ZM96.7485 110.09L96.7964 110.588H96.7964L96.7485 110.09ZM95.5019 110.133L95.4975 109.633H95.4975L95.5019 110.133ZM95.4502 110.134L95.4458 109.634H95.4457L95.4502 110.134ZM71.7261 110.345L71.7217 109.845H71.7217L71.7261 110.345ZM71.623 110.346V110.846L71.6275 110.846L71.623 110.346ZM71.6228 110.346V109.846L71.6183 109.846L71.6228 110.346ZM68.3575 110.26L68.2958 110.756H68.2958L68.3575 110.26ZM65.7806 108.974L66.1805 108.674L65.7806 108.974ZM65.3735 108.276L64.9154 108.476H64.9154L65.3735 108.276ZM65.5222 105.399L65.0599 105.209L65.0599 105.209L65.5222 105.399ZM67.0549 102.515L67.4879 102.765L67.4879 102.765L67.0549 102.515ZM67.1065 102.425L67.5395 102.675L67.5395 102.675L67.1065 102.425ZM67.8984 101.054L68.3314 101.304L68.7795 100.528L67.8837 100.554L67.8984 101.054ZM57.4805 101.36L57.4658 100.86L57.4805 101.36ZM55.5423 101.202L55.7544 100.75H55.7543L55.5423 101.202ZM55.3391 101.093L55.602 100.667H55.602L55.3391 101.093ZM54.1464 99.5566L53.72 99.8179L54.1464 99.5566ZM47.6305 88.9228L48.0569 88.6616L47.6382 87.9783L47.2085 88.6547L47.6305 88.9228ZM46.0817 91.3608L45.6597 91.0927L45.6596 91.0927L46.0817 91.3608ZM46.0272 91.4466L45.6051 91.1786L45.6051 91.1786L46.0272 91.4466ZM44.2481 94.0396L43.8652 93.718L43.8652 93.718L44.2481 94.0396ZM41.8373 95.4801L41.7939 94.982H41.7939L41.8373 95.4801ZM41.0452 95.4592L41.1149 94.9641L41.1149 94.9641L41.0452 95.4592ZM38.7141 93.8931L39.1134 93.5922H39.1134L38.7141 93.8931ZM37.0746 91.2096L37.5103 90.9643L37.5103 90.9643L37.0746 91.2096ZM37.0247 91.1211L37.4604 90.8757L37.4604 90.8757L37.0247 91.1211ZM26.9498 73.2369L27.3854 72.9915L27.3854 72.9914L26.9498 73.2369ZM26.9245 73.1919L27.3601 72.9464L27.3601 72.9464L26.9245 73.1919ZM26.3402 72.0898L26.7955 71.8831L26.3402 72.0898ZM26.0045 70.8112L25.5052 70.8367H25.5052L26.0045 70.8112ZM26.007 70.4117L26.506 70.4433L26.506 70.4433L26.007 70.4117ZM26.3583 69.1373L26.811 69.3495L26.811 69.3495L26.3583 69.1373ZM26.9559 68.0425L27.3885 68.2932L27.3885 68.2932L26.9559 68.0425ZM26.9819 67.9977L27.4144 68.2485L27.4145 68.2485L26.9819 67.9977ZM38.8786 47.4711L39.3112 47.7218L39.3112 47.7218L38.8786 47.4711ZM38.9303 47.3818L39.3629 47.6326L39.3629 47.6325L38.9303 47.3818ZM40.6667 44.615L41.0623 44.9207L41.0623 44.9207L40.6667 44.615ZM43.086 43.052L43.1407 43.549H43.1407L43.086 43.052ZM43.894 43.057L43.8332 43.5533H43.8332L43.894 43.057ZM46.294 44.6494L46.6933 44.3486V44.3485L46.294 44.6494ZM47.9962 47.4369L47.5605 47.6823L47.5609 47.6829L47.9962 47.4369ZM47.9963 47.437L48.4327 47.1931L48.4315 47.191L47.9963 47.437ZM47.9964 47.4372L48.4436 47.2136L48.4385 47.2033L48.4328 47.1933L47.9964 47.4372ZM47.9964 47.4373L47.5492 47.6609L47.5547 47.6719L47.5608 47.6827L47.9964 47.4373ZM48.047 47.5272L47.6114 47.7726L47.6114 47.7726L48.047 47.5272ZM48.3744 48.1083L47.9388 48.3537L48.3808 49.1383L48.813 48.3483L48.3744 48.1083ZM52.8026 40.0162L53.2412 40.2562L52.8026 40.0162ZM53.906 38.4388L53.6208 38.0281L53.6208 38.0281L53.906 38.4388ZM54.1011 38.3192L53.8647 37.8786L54.1011 38.3192ZM56.0075 38.0524L56.0222 38.5522L56.0075 38.0524ZM69.7965 37.647L69.8112 38.1468L70.6188 38.1231L70.2373 37.4109L69.7965 37.647ZM68.2571 34.7733L68.6978 34.5372L68.6978 34.5372L68.2571 34.7733ZM68.209 34.6837L68.6498 34.4476L68.6475 34.4434L68.209 34.6837ZM68.209 34.6836L68.6475 34.4433L68.644 34.437L68.209 34.6836ZM68.209 34.6835L67.767 34.9173L67.7704 34.9238L67.774 34.9301L68.209 34.6835ZM68.2089 34.6834L68.6509 34.4496L68.6496 34.4472L68.2089 34.6834ZM66.8231 31.861L66.355 32.0367L66.355 32.0367L66.8231 31.861ZM66.7513 29.0535L66.296 28.8469V28.8469L66.7513 29.0535ZM67.1583 28.3737L66.7612 28.0699V28.0699L67.1583 28.3737ZM69.667 27.1113L69.7331 27.6069V27.6069L69.667 27.1113ZM101.531 55L101.105 55.2612L101.251 55.5H101.531V55ZM91.6696 38.9054L92.0959 38.6442L91.6696 38.9054ZM90.4768 37.3695L90.2139 37.7948L90.2139 37.7948L90.4768 37.3695ZM90.2737 37.2596L90.4858 36.8068L90.4858 36.8068L90.2737 37.2596ZM88.3354 37.102L88.3501 37.6017L88.3354 37.102ZM73.1471 37.5485L72.7064 37.7846L72.8525 38.0574L73.1618 38.0483L73.1471 37.5485ZM70.9015 33.3567L70.4608 33.5928L70.9015 33.3567ZM69.6317 30.8066L70.0998 30.6308L70.0998 30.6308L69.6317 30.8066ZM69.4928 30.2732L69.0472 30.0464L68.9935 30.1519L68.9928 30.2703L69.4928 30.2732ZM69.528 30.2143L69.2894 29.775L69.1853 29.8315L69.1176 29.9287L69.528 30.2143ZM70.0638 30.0849L70.1299 30.5806L70.0638 30.0849ZM94.476 30.0206L94.4326 30.5187V30.5187L94.476 30.0206ZM94.6557 30.046L94.5375 30.5318L94.5375 30.5318L94.6557 30.046ZM94.6768 30.052L94.8514 29.5834L94.8462 29.5816L94.6768 30.052ZM94.6779 30.0524L94.5033 30.5209L94.518 30.5264L94.5331 30.531L94.6779 30.0524ZM94.6781 30.0524L94.8951 29.602L94.8601 29.5851L94.8229 29.5739L94.6781 30.0524ZM94.6782 30.0525L94.9012 29.6049L94.8952 29.602L94.6782 30.0525ZM94.7276 30.0808L95.0655 29.7122L95.0349 29.6841L95 29.6615L94.7276 30.0808ZM94.7277 30.0808L94.3899 30.4494L94.4013 30.4599L94.4133 30.4696L94.7277 30.0808ZM94.7287 30.0816L95.0481 29.6969L95.0431 29.6929L94.7287 30.0816ZM94.7446 30.0968L95.1031 29.7483V29.7483L94.7446 30.0968ZM94.8577 30.2386L95.2647 29.9483V29.9483L94.8577 30.2386ZM95.4023 31.1225L95.8331 30.8686V30.8686L95.4023 31.1225ZM107.447 51.5625L107.017 51.8163V51.8163L107.447 51.5625ZM108.879 54.167L109.34 53.9724L108.879 54.167ZM109.047 54.7194L109.497 54.9389L109.551 54.8267L109.547 54.7019L109.047 54.7194ZM109.015 54.7757L109.254 55.2151L109.364 55.1555L109.432 55.0513L109.015 54.7757ZM108.454 54.9114L108.52 55.4071V55.4071L108.454 54.9114ZM74.73 40.5033L74.7153 40.0035L73.9078 40.0272L74.2893 40.7394L74.73 40.5033ZM88.4236 40.1007L88.4383 40.6004L88.4383 40.6004L88.4236 40.1007ZM81.8515 53.7967L81.4108 54.0328V54.0328L81.8515 53.7967ZM82.384 54.7435L81.9662 55.0183L81.9662 55.0183L82.384 54.7435ZM82.4969 54.8961L82.1274 55.233L82.1319 55.2378L82.4969 54.8961ZM82.5034 54.9031L82.1383 55.2449L82.1462 55.2529L82.5034 54.9031ZM82.5064 54.9061L82.1492 55.256L82.1523 55.2591L82.5064 54.9061ZM82.5128 54.9122L82.8433 54.5371L82.8429 54.5366L82.5128 54.9122ZM82.5137 54.913L82.1832 55.2882L82.2063 55.3086L82.2319 55.326L82.5137 54.913ZM82.5644 54.9434L82.3333 55.3868L82.3547 55.3979L82.3771 55.407L82.5644 54.9434ZM82.5649 54.9436L82.3776 55.4072L82.3856 55.4103L82.5649 54.9436ZM82.5657 54.9439L82.3863 55.4106L82.3946 55.4138L82.4029 55.4167L82.5657 54.9439ZM82.5704 54.9455L82.4076 55.4184L82.4169 55.4214L82.5704 54.9455ZM82.5874 54.9503L82.7099 54.4655L82.7099 54.4655L82.5874 54.9503ZM82.7752 54.9778L82.7303 55.4758H82.7303L82.7752 54.9778ZM98.0131 55V55.5H98.9058L98.4394 54.7388L98.0131 55ZM89.1116 40.4728L88.6853 40.734L88.6853 40.734L89.1116 40.4728ZM88.8749 40.0884L89.2993 39.824L89.1487 39.5822L88.8639 39.5885L88.8749 40.0884ZM71.3794 40.6018L71.8202 40.3657L71.6741 40.0929L71.3647 40.102L71.3794 40.6018ZM79.2071 55.2133L79.6478 54.9772L79.6478 54.9772L79.2071 55.2133ZM57.857 40.9993L57.8423 40.4996L57.003 40.5242L57.4246 41.2504L57.857 40.9993ZM73.2445 67.5L72.8121 67.7511L72.9567 68H73.2445V67.5ZM105.672 67.5V68H106.565L106.099 67.2388L105.672 67.5ZM99.8513 58L100.278 57.7388L100.131 57.5H99.8513V58ZM83.8613 58V57.5H83.8612L83.8613 58ZM83.8075 58L83.8075 57.5H83.8075L83.8075 58ZM82.5058 57.9657L82.5507 57.4677L82.5058 57.9657ZM81.1788 57.6042L80.9479 58.0477L81.1788 57.6042ZM80.8226 57.391L81.1045 56.978L80.8226 57.391ZM79.8774 56.392L80.2952 56.1172L79.8774 56.392ZM79.2326 55.261L79.6734 55.025L79.6663 55.0117L79.6584 54.999L79.2326 55.261ZM79.2326 55.2609L78.7854 55.4846L78.7952 55.5042L78.8067 55.523L79.2326 55.2609ZM79.2325 55.2608L79.6799 55.0371L79.6737 55.0255L79.2325 55.2608ZM79.2325 55.2607L79.6736 55.0254L79.6732 55.0246L79.2325 55.2607ZM55.8566 96.6057L55.4303 96.867L55.8734 97.5902L56.2916 96.8522L55.8566 96.6057ZM71.0783 69.7439L71.5133 69.9904L71.6548 69.7408L71.5107 69.4928L71.0783 69.7439ZM49.4215 86.1036L48.9995 85.8355L48.8322 86.0988L48.9952 86.3649L49.4215 86.1036ZM58.5158 71.7882L58.0938 71.52L58.0938 71.5201L58.5158 71.7882ZM58.5447 71.7428L58.9668 72.011L58.9734 72L58.5447 71.7428ZM58.5447 71.7427L58.1226 71.4745L58.116 71.4855L58.5447 71.7427ZM59.2137 70.6256L59.6581 70.8547L59.2137 70.6256ZM59.6202 69.3118L59.122 69.2689L59.6202 69.3118ZM59.6312 68.8967L59.1314 68.9132V68.9132L59.6312 68.8967ZM59.2948 67.5632L58.8389 67.7685V67.7685L59.2948 67.5632ZM58.6858 66.4122L58.2502 66.6577L58.2502 66.6577L58.6858 66.4122ZM58.6594 66.3654L58.2238 66.6108L58.2238 66.6108L58.6594 66.3654ZM50.1091 51.1876L49.6705 50.9476L49.5372 51.1912L49.6735 51.433L50.1091 51.1876ZM55.0554 42.1488L55.4878 41.8977L55.0425 41.1308L54.6168 41.9088L55.0554 42.1488ZM74.098 70.5V70H73.8067L73.663 70.2535L74.098 70.5ZM58.3255 98.3339L57.8905 98.0874L57.4528 98.8598L58.3402 98.8337L58.3255 98.3339ZM69.6611 98.0007L69.6758 98.5004L69.9547 98.4922L70.0942 98.2507L69.6611 98.0007ZM77.9174 83.7004L78.3504 83.9504L78.3504 83.9504L77.9174 83.7004ZM77.9443 83.6539L78.3774 83.9039L78.3832 83.8933L77.9443 83.6539ZM77.9443 83.6537L77.5085 83.4086L77.5054 83.4143L77.9443 83.6537ZM77.9444 83.6536L77.5155 83.3962L77.5086 83.4084L77.9444 83.6536ZM77.9446 83.6533L78.3734 83.9106L78.3776 83.9032L77.9446 83.6533ZM78.6249 82.5437L78.2161 82.2558L78.6249 82.5437ZM79.6013 81.5752L79.3328 81.1535L79.3328 81.1535L79.6013 81.5752ZM79.9641 81.3734L79.7474 80.9228H79.7474L79.9641 81.3734ZM81.3019 81.0543L81.331 81.5535H81.331L81.3019 81.0543ZM82.6041 81.0614L82.5881 81.5611L82.5881 81.5611L82.6041 81.0614ZM82.6578 81.0631L82.6419 81.5628H82.6419L82.6578 81.0631ZM98.8245 81.5772L98.8086 82.0769L99.1156 82.0867L99.2631 81.8172L98.8245 81.5772ZM104.886 70.5L105.325 70.74L105.73 70H104.886V70.5ZM46.6778 51.2088L47.1164 51.4488L47.2496 51.2052L47.1134 50.9634L46.6778 51.2088ZM45.4333 48.9996L45.8689 48.7542L45.4333 48.9996ZM37.2769 68.3878L37.7155 68.6279L37.2769 68.3878ZM36.5373 70.1863L36.0376 70.1697V70.1697L36.5373 70.1863ZM36.543 70.4172L36.0447 70.4583L36.543 70.4172ZM37.3698 72.1773L36.9435 72.4386L37.3698 72.1773ZM45.8855 86.075L46.3076 86.3431L46.4748 86.0797L46.3119 85.8137L45.8855 86.075ZM43.5495 89.7521L43.1274 89.484L43.5495 89.7521ZM41.9509 92.1101L42.3337 92.4317H42.3338L41.9509 92.1101ZM41.5544 92.4929L41.5755 92.9925L41.6938 92.9875L41.7973 92.93L41.5544 92.4929ZM41.4858 92.4911L41.2202 92.9147L41.3205 92.9776L41.4383 92.9889L41.4858 92.4911ZM41.1101 92.0878L41.5094 91.7869L41.5094 91.7869L41.1101 92.0878ZM39.6385 89.6486L40.0741 89.4032L40.0741 89.4032L39.6385 89.6486ZM29.5636 71.7644L29.9992 71.519H29.9992L29.5636 71.7644ZM29.072 70.85L29.5273 70.6433H29.5273L29.072 70.85ZM29.006 70.681L28.5247 70.8164L28.5247 70.8165L29.006 70.681ZM29.0009 70.6596L28.5068 70.737L28.5079 70.7432L29.0009 70.6596ZM29.0007 70.6584L29.4947 70.5811L29.4924 70.5665L29.4892 70.552L29.0007 70.6584ZM29.0007 70.6583L28.502 70.6952L28.5046 70.7303L28.5121 70.7647L29.0007 70.6583ZM29.0006 70.6582L28.5007 70.6504L28.5004 70.6728L28.502 70.6951L29.0006 70.6582ZM29.0006 70.6582L29.5006 70.666L29.5008 70.6494L29.5 70.6328L29.0006 70.6582ZM29.001 70.6012L28.5138 70.4889L28.5046 70.5288L28.502 70.5696L29.001 70.6012ZM29.001 70.6011L29.4883 70.7134L29.4916 70.699L29.494 70.6844L29.001 70.6011ZM29.0012 70.5999L28.5122 70.4959L28.51 70.5062L28.5082 70.5166L29.0012 70.5999ZM29.0025 70.5941L28.5173 70.4731L28.5152 70.4816L28.5134 70.4901L29.0025 70.5941ZM29.0039 70.5885L28.5221 70.4538L28.5187 70.4675L29.0039 70.5885ZM29.0066 70.5786L28.527 70.4373L28.5251 70.444L29.0066 70.5786ZM29.0747 70.4104L28.622 70.1982L28.622 70.1983L29.0747 70.4104ZM29.5774 69.5021L30.01 69.7528H30.01L29.5774 69.5021ZM41.4741 48.9754L41.9067 49.2261L41.4741 48.9754ZM43.0405 46.4494L43.4362 46.7551L43.4362 46.7551L43.0405 46.4494ZM43.4393 46.0319L43.4099 45.5328L43.2854 45.5401L43.1789 45.6051L43.4393 46.0319ZM43.5042 46.0323L43.7699 45.6087L43.6641 45.5424L43.5396 45.5336L43.5042 46.0323ZM43.8979 46.4546L44.2972 46.1537L44.2972 46.1537L43.8979 46.4546ZM47.6765 83.2558L47.2502 83.517L47.6688 84.2003L48.0985 83.5239L47.6765 83.2558ZM39.9278 70.6099L39.5015 70.8712L39.9278 70.6099ZM55.9836 70.1795L55.5616 69.9114L55.9836 70.1795ZM56.5473 69.2508L56.9917 69.48L56.9917 69.48L56.5473 69.2508ZM56.6248 69.0776L57.0996 69.2342L57.0996 69.2341L56.6248 69.0776ZM56.631 69.0558L56.1419 68.9518L56.1417 68.953L56.631 69.0558ZM56.6312 69.0546L57.1203 69.1586L57.1267 69.1283L57.1294 69.0975L56.6312 69.0546ZM56.6328 68.9955L57.1325 68.9792L57.1317 68.9549L57.1286 68.9308L56.6328 68.9955ZM56.6327 68.995L57.1286 68.9303L57.1274 68.9225L56.6327 68.995ZM56.6326 68.9942L57.1273 68.9217L57.1267 68.9175L56.6326 68.9942ZM56.6309 68.9854L56.1431 69.0953L56.1431 69.0954L56.6309 68.9854ZM56.6275 68.9721L57.11 68.841L57.11 68.8409L56.6275 68.9721ZM56.5593 68.795L57.0152 68.5897L57.0152 68.5897L56.5593 68.795ZM56.0456 67.8378L56.4812 67.5924V67.5924L56.0456 67.8378ZM48.4125 54.2881L48.8481 54.0427L48.4061 53.2581L47.9738 54.0481L48.4125 54.2881ZM39.9086 69.828L39.47 69.588L39.47 69.588L39.9086 69.828ZM39.6928 70.2245L39.2524 69.9877L39.1175 70.2386L39.2645 70.4826L39.6928 70.2245ZM71.4223 100.95L71.4076 100.45L71.1288 100.459L70.9893 100.7L71.4223 100.95ZM69.7046 103.925L70.1376 104.175L69.7046 103.925ZM89.8084 100.41L89.7937 99.9098L89.8084 100.41ZM91.7148 100.143L91.9513 100.583L91.9513 100.583L91.7148 100.143ZM91.91 100.023L92.1951 100.434L92.1952 100.434L91.91 100.023ZM93.0133 98.4458L93.4519 98.6859L93.0133 98.4458ZM100.571 84.6343L100.587 84.1345L100.28 84.1247L100.133 84.3942L100.571 84.6343ZM105.739 84.7986L105.723 85.2983L105.739 84.7986ZM108.582 84.974L108.664 84.4807L108.664 84.4807L108.582 84.974ZM109.114 85.1203L109.533 84.8478L109.468 84.7486L109.366 84.6888L109.114 85.1203ZM109.147 85.1803L109.647 85.1933L109.65 85.0749L109.6 84.9678L109.147 85.1803ZM108.991 85.709L109.454 85.8995V85.8995L108.991 85.709ZM107.641 88.2174L108.074 88.4674L107.641 88.2174ZM97.3777 105.994L97.8107 106.244L97.3777 105.994ZM96.8409 106.883L96.4313 106.596L96.8409 106.883ZM96.7291 107.026L96.3675 106.68L96.7291 107.026ZM96.7133 107.041L97.0313 107.427L97.0361 107.423L96.7133 107.041ZM96.7124 107.042L96.3944 106.656L96.3842 106.664L96.3745 106.673L96.7124 107.042ZM96.7123 107.042L97.0064 107.446L97.0293 107.43L97.0502 107.41L96.7123 107.042ZM96.7122 107.042L96.9882 107.459L96.9974 107.453L97.0063 107.446L96.7122 107.042ZM96.663 107.071L96.8211 107.545L96.8566 107.533L96.8899 107.516L96.663 107.071ZM96.6629 107.071L96.5048 106.596L96.4941 106.6L96.4836 106.604L96.6629 107.071ZM96.6617 107.071L96.8256 107.543L96.8334 107.541L96.841 107.538L96.6617 107.071ZM96.6582 107.072L96.8141 107.547L96.8221 107.545L96.6582 107.072ZM96.6407 107.077L96.7632 107.562L96.7633 107.562L96.6407 107.077ZM96.4613 107.104L96.4134 106.607H96.4134L96.4613 107.104ZM95.4235 107.134L95.4279 107.634L95.4235 107.134ZM71.6994 107.345L71.695 106.845H71.695L71.6994 107.345ZM68.7278 107.283L68.7895 106.787H68.7895L68.7278 107.283ZM68.1655 107.153L67.7508 107.432L67.8205 107.535L67.9307 107.594L68.1655 107.153ZM68.1328 107.096L67.6329 107.083L67.6297 107.208L67.6854 107.32L68.1328 107.096ZM68.2958 106.543L67.8335 106.352L67.8335 106.352L68.2958 106.543ZM97.21 84.5274L97.6487 84.7674L98.0393 84.0535L97.2259 84.0276L97.21 84.5274ZM90.3816 97.0057L89.943 96.7656L89.943 96.7657L90.3816 97.0057ZM82.5625 84.0616L82.5784 83.5618L82.5625 84.0616ZM81.4762 84.0492L81.4472 83.5501H81.4472L81.4762 84.0492ZM81.2876 84.0708L81.3946 84.5592H81.3946L81.2876 84.0708ZM81.2666 84.0762L81.1119 83.6007L81.1091 83.6017L81.2666 84.0762ZM81.2657 84.0765L81.1082 83.6019L81.1061 83.6026L81.2657 84.0765ZM81.2646 84.0769L81.105 83.603L81.0757 83.6129L81.0479 83.6263L81.2646 84.0769ZM81.2129 84.1056L80.9445 83.6838L80.9239 83.6969L80.9047 83.7119L81.2129 84.1056ZM81.2125 84.1059L80.9042 83.7122L80.8988 83.7166L81.2125 84.1059ZM81.2119 84.1064L80.8981 83.7171L80.8937 83.7207L81.2119 84.1064ZM81.1955 84.122L80.8369 83.7736L80.8369 83.7736L81.1955 84.122ZM81.0777 84.2709L80.6689 83.9831L80.6689 83.9831L81.0777 84.2709ZM80.5155 85.2004L80.9485 85.4504L80.5155 85.2004ZM73.1851 97.897L72.752 97.647L72.3039 98.4232L73.1997 98.3968L73.1851 97.897ZM89.7203 97.4109L89.7349 97.9107H89.735L89.7203 97.4109ZM90.1664 97.3968L90.1848 97.8965L90.4663 97.8861L90.6033 97.6401L90.1664 97.3968ZM69.5103 30.2262L69.702 29.7644L69.7018 29.7644L69.5103 30.2262ZM69.5217 30.2179L69.8584 30.5875L69.2673 29.7874L69.5217 30.2179ZM69.4949 30.2519L69.8116 29.865L69.8113 29.8648L69.4949 30.2519ZM69.4929 30.2659L68.9934 30.245L69.9778 30.3882L69.4929 30.2659ZM109.023 54.7714L108.686 54.4023L109.28 55.2001L109.023 54.7714ZM109.046 54.742L108.767 55.1572L108.769 55.158L109.046 54.742ZM109.047 54.7282L109.547 54.7317L108.558 54.6251L109.047 54.7282ZM109.147 85.173L108.659 85.2795L109.647 85.1681L109.147 85.173ZM109.146 85.159L108.842 84.7614L108.837 84.7654L109.146 85.159ZM109.146 85.163L109.644 85.1214L109.644 85.1202L109.146 85.163ZM109.12 85.1241L109.4 84.7096L108.772 85.4827L109.12 85.1241ZM109.131 85.1328L108.956 84.6646L108.954 84.6652L109.131 85.1328ZM109.126 85.1283L109.42 84.7238L109.413 84.7187L109.406 84.7138L109.126 85.1283ZM68.1327 107.105L68.6237 107.011L67.6328 107.114L68.1327 107.105ZM68.1342 107.119L68.4457 107.51L68.4466 107.509L68.1342 107.119ZM68.1338 107.111L68.6273 107.031L68.6261 107.023L68.6247 107.016L68.1338 107.111ZM68.1465 107.14L68.3672 107.589L68.3701 107.587L68.1465 107.14ZM68.1577 107.148L67.9045 107.579L68.4915 106.776L68.1577 107.148ZM41.5049 92.5007L41.0084 92.5603L41.0085 92.5611L41.5049 92.5007ZM41.492 92.4949L41.6489 92.0201L41.2418 92.9278L41.492 92.4949ZM41.5348 92.5015L41.0424 92.4147L41.0423 92.4155L41.5348 92.5015ZM41.548 92.4964L41.775 92.9419L41.4165 92.014L41.548 92.4964ZM43.4966 46.0278L43.3406 46.5028L43.7442 45.5933L43.4966 46.0278ZM43.4597 46.0219L42.9611 45.9836L42.961 45.9856L43.4597 46.0219ZM43.447 46.0274L43.2048 45.59L43.5973 46.5043L43.447 46.0274ZM72.9113 26.5L72.8096 26.5L72.8096 27.5L72.9113 27.5L72.9113 26.5ZM93.438 26.5H72.9113V27.5H93.438V26.5ZM93.4897 26.5L93.438 26.5L93.4381 27.5L93.4897 27.5L93.4897 26.5ZM94.7801 26.5338C94.3873 26.4995 93.9346 26.5 93.4896 26.5L93.4897 27.5C93.9475 27.5 94.3527 27.5003 94.6932 27.53L94.7801 26.5338ZM96.2383 26.9194C95.7245 26.6636 95.2245 26.5725 94.7801 26.5338L94.6932 27.53C95.0656 27.5625 95.4303 27.6342 95.7925 27.8146L96.2383 26.9194ZM96.6347 27.146C96.507 27.063 96.3746 26.9873 96.2383 26.9194L95.7925 27.8146C95.8948 27.8655 95.994 27.9222 96.0898 27.9845L96.6347 27.146ZM97.7073 28.2064C97.4482 27.8432 97.116 27.4587 96.6347 27.146L96.0898 27.9845C96.4292 28.205 96.676 28.4827 96.8931 28.7871L97.7073 28.2064ZM98.3915 29.3011C98.1657 28.9177 97.9362 28.5275 97.7073 28.2064L96.8931 28.7871C97.0916 29.0654 97.2976 29.4143 97.5299 29.8087L98.3915 29.3011ZM98.4177 29.3456L98.3915 29.301L97.5299 29.8087L97.5562 29.8532L98.4177 29.3456ZM110.463 49.7855L98.4177 29.3455L97.5562 29.8532L109.601 50.2932L110.463 49.7855ZM110.515 49.8744L110.463 49.7855L109.601 50.2933L109.654 50.3821L110.515 49.8744ZM112.103 52.8045C111.749 51.9654 111.162 50.9721 110.515 49.8744L109.654 50.3821C110.313 51.5018 110.859 52.4299 111.182 53.1938L112.103 52.8045ZM112.277 56.0704C112.801 54.8432 112.468 53.6675 112.103 52.8045L111.182 53.1938C111.515 53.9807 111.718 54.8324 111.357 55.6778L112.277 56.0704ZM111.819 56.8722C112.002 56.6235 112.156 56.3545 112.277 56.0704L111.357 55.6778C111.266 55.8909 111.151 56.0926 111.014 56.2791L111.819 56.8722ZM108.917 58.3807C109.846 58.2568 111.027 57.9466 111.819 56.8722L111.014 56.2791C110.468 57.0193 109.631 57.2765 108.785 57.3895L108.917 58.3807ZM105.586 58.5C106.86 58.5001 108.014 58.5012 108.917 58.3807L108.785 57.3895C107.963 57.4992 106.886 57.5001 105.586 57.5L105.586 58.5ZM105.483 58.5L105.586 58.5L105.586 57.5L105.483 57.5L105.483 58.5ZM103.37 58.5H105.483V57.5H103.37V58.5ZM108.872 66.0235L103.796 57.7388L102.943 58.2612L108.02 66.5459L108.872 66.0235ZM109.771 68.0037C109.745 67.6809 109.642 67.3916 109.489 67.0854C109.341 66.7876 109.131 66.4446 108.872 66.0235L108.02 66.5459C108.287 66.9818 108.47 67.2816 108.594 67.531C108.714 67.7719 108.762 67.9341 108.775 68.0859L109.771 68.0037ZM109.778 68.2923C109.782 68.196 109.779 68.0997 109.771 68.0037L108.775 68.0859C108.779 68.1435 108.781 68.2013 108.779 68.2591L109.778 68.2923ZM108.978 70.3142C109.215 69.8809 109.408 69.5281 109.542 69.2233C109.679 68.91 109.768 68.616 109.778 68.2923L108.779 68.2591C108.774 68.4113 108.734 68.5756 108.626 68.8221C108.514 69.0773 108.346 69.3857 108.1 69.8342L108.978 70.3142ZM102.624 81.9241L108.978 70.3142L108.1 69.8342L101.747 81.4441L102.624 81.9241ZM105.85 81.3004L102.202 81.1843L102.17 82.1838L105.818 82.2999L105.85 81.3004ZM105.952 81.3036L105.85 81.3004L105.819 82.2999L105.92 82.3031L105.952 81.3036ZM105.936 81.3033H105.936V82.3033H105.936V81.3033ZM109.155 81.5212C108.284 81.3766 107.172 81.3423 105.952 81.3036L105.92 82.3031C107.165 82.3426 108.201 82.3765 108.992 82.5077L109.155 81.5212ZM111.947 83.065C111.193 82.0104 110.06 81.6714 109.155 81.5212L108.992 82.5077C109.811 82.6437 110.613 82.9193 111.134 83.6469L111.947 83.065ZM112.388 83.8563C112.271 83.5767 112.124 83.3112 111.947 83.065L111.134 83.6469C111.266 83.8316 111.377 84.0308 111.464 84.2404L112.388 83.8563ZM112.227 87.0426C112.577 86.1948 112.886 85.0536 112.388 83.8563L111.464 84.2405C111.808 85.0666 111.619 85.8937 111.303 86.6616L112.227 87.0426ZM110.723 89.8792C111.333 88.8222 111.891 87.8594 112.227 87.0427L111.303 86.6616C110.997 87.4029 110.48 88.3004 109.857 89.3792L110.723 89.8792ZM110.721 89.8829L110.721 89.8827L109.859 89.3757L109.859 89.3759L110.721 89.8829ZM110.672 89.9675L110.723 89.8794L109.857 89.3794L109.806 89.4674L110.672 89.9675ZM100.409 107.744L110.672 89.9674L109.806 89.4674L99.5428 107.244L100.409 107.744ZM100.383 107.789L100.409 107.744L99.5428 107.244L99.5169 107.289L100.383 107.789ZM99.7085 108.89C99.9346 108.566 100.161 108.174 100.383 107.789L99.5169 107.289C99.2881 107.685 99.0852 108.036 98.8892 108.316L99.7085 108.89ZM98.6454 109.96C99.124 109.642 99.4527 109.255 99.7085 108.89L98.8892 108.316C98.6749 108.622 98.4305 108.902 98.0931 109.126L98.6454 109.96ZM98.2511 110.19C98.3868 110.12 98.5185 110.044 98.6455 109.96L98.0931 109.126C97.9979 109.189 97.8991 109.247 97.7973 109.298L98.2511 110.19ZM96.7964 110.588C97.2404 110.545 97.7395 110.45 98.2511 110.19L97.7973 109.298C97.4367 109.482 97.0727 109.557 96.7006 109.593L96.7964 110.588ZM95.5063 110.633C95.9512 110.63 96.4039 110.626 96.7964 110.588L96.7006 109.593C96.3604 109.626 95.9552 109.629 95.4975 109.633L95.5063 110.633ZM95.4546 110.634L95.5063 110.633L95.4975 109.633L95.4458 109.634L95.4546 110.634ZM71.7306 110.845L95.4547 110.634L95.4457 109.634L71.7217 109.845L71.7306 110.845ZM71.6275 110.846L71.7306 110.845L71.7217 109.845L71.6185 109.846L71.6275 110.846ZM71.6228 110.846H71.623V109.846H71.6228V110.846ZM68.2958 110.756C69.1998 110.869 70.3532 110.858 71.6273 110.846L71.6183 109.846C70.3188 109.858 69.2422 109.866 68.4193 109.764L68.2958 110.756ZM65.3807 109.274C66.1816 110.341 67.3661 110.641 68.2958 110.756L68.4193 109.764C67.5714 109.659 66.7322 109.409 66.1805 108.674L65.3807 109.274ZM64.9154 108.476C65.0392 108.759 65.1953 109.027 65.3807 109.274L66.1805 108.674C66.0415 108.488 65.9244 108.288 65.8316 108.075L64.9154 108.476ZM65.0599 105.209C64.7029 106.075 64.3806 107.254 64.9154 108.476L65.8316 108.075C65.4632 107.233 65.6589 106.38 65.9844 105.59L65.0599 105.209ZM66.6219 102.265C65.9847 103.368 65.407 104.367 65.0599 105.209L65.9844 105.59C66.3005 104.823 66.838 103.89 67.4879 102.765L66.6219 102.265ZM66.6735 102.175L66.6219 102.265L67.4879 102.765L67.5395 102.675L66.6735 102.175ZM67.4654 100.804L66.6735 102.175L67.5395 102.675L68.3314 101.304L67.4654 100.804ZM57.4952 101.86L67.9131 101.554L67.8837 100.554L57.4658 100.86L57.4952 101.86ZM55.3302 101.655C55.6235 101.793 55.9256 101.847 56.2671 101.867C56.5992 101.887 57.0015 101.874 57.4952 101.86L57.4658 100.86C56.9548 100.875 56.6036 100.885 56.3255 100.869C56.0569 100.853 55.8923 100.814 55.7544 100.75L55.3302 101.655ZM55.0762 101.518C55.1582 101.568 55.2429 101.614 55.3302 101.655L55.7543 100.75C55.702 100.725 55.6511 100.698 55.602 100.667L55.0762 101.518ZM53.72 99.8179C53.9781 100.239 54.188 100.582 54.386 100.85C54.5896 101.125 54.8007 101.348 55.0762 101.518L55.602 100.667C55.4724 100.587 55.3498 100.471 55.1895 100.254C55.0237 100.031 54.8398 99.7313 54.5727 99.2954L53.72 99.8179ZM47.2042 89.184L53.72 99.8179L54.5727 99.2954L48.0569 88.6616L47.2042 89.184ZM46.5037 91.6289L48.0526 89.1909L47.2085 88.6547L45.6597 91.0927L46.5037 91.6289ZM46.4492 91.7147L46.5037 91.6289L45.6596 91.0927L45.6051 91.1786L46.4492 91.7147ZM44.6309 94.3612C45.1991 93.6847 45.7948 92.7451 46.4492 91.7147L45.6051 91.1786C44.9372 92.2301 44.3809 93.104 43.8652 93.718L44.6309 94.3612ZM41.8808 95.9782C43.1727 95.8656 44.0411 95.0634 44.6309 94.3612L43.8652 93.718C43.331 94.354 42.6853 94.9043 41.7939 94.982L41.8808 95.9782ZM40.9755 95.9543C41.2754 95.9965 41.5791 96.0046 41.8808 95.9782L41.7939 94.982C41.5676 95.0018 41.3398 94.9957 41.1149 94.9641L40.9755 95.9543ZM38.3147 94.194C38.8666 94.9264 39.6913 95.7735 40.9755 95.9543L41.1149 94.9641C40.2289 94.8393 39.6132 94.2555 39.1134 93.5922L38.3147 94.194ZM36.639 91.455C37.238 92.5186 37.7831 93.4884 38.3147 94.194L39.1134 93.5922C38.6309 92.9518 38.1216 92.0497 37.5103 90.9643L36.639 91.455ZM36.5891 91.3665L36.639 91.455L37.5103 90.9643L37.4604 90.8757L36.5891 91.3665ZM26.5142 73.4823L36.5891 91.3665L37.4604 90.8757L27.3854 72.9915L26.5142 73.4823ZM26.4888 73.4373L26.5142 73.4823L27.3854 72.9914L27.3601 72.9464L26.4888 73.4373ZM25.8849 72.2964C26.0479 72.6555 26.2704 73.0497 26.4889 73.4373L27.3601 72.9464C27.1354 72.5477 26.9368 72.1944 26.7955 71.8831L25.8849 72.2964ZM25.5052 70.8367C25.5345 71.4099 25.7005 71.8902 25.8849 72.2964L26.7955 71.8831C26.641 71.5427 26.5245 71.1899 26.5039 70.7857L25.5052 70.8367ZM25.508 70.3801C25.4984 70.5321 25.4974 70.6846 25.5052 70.8367L26.5039 70.7857C26.4981 70.6716 26.4988 70.5573 26.506 70.4433L25.508 70.3801ZM25.9055 68.9251C25.7162 69.3291 25.5443 69.8072 25.508 70.3801L26.506 70.4433C26.5316 70.0394 26.6524 69.688 26.811 69.3495L25.9055 68.9251ZM26.5234 67.7917C26.3002 68.1767 26.0729 68.5681 25.9055 68.9251L26.811 69.3495C26.9561 69.04 27.159 68.6892 27.3885 68.2932L26.5234 67.7917ZM26.5493 67.747L26.5234 67.7917L27.3885 68.2932L27.4144 68.2485L26.5493 67.747ZM38.446 47.2204L26.5493 67.747L27.4145 68.2485L39.3112 47.7218L38.446 47.2204ZM38.4977 47.1311L38.446 47.2204L39.3112 47.7218L39.3629 47.6326L38.4977 47.1311ZM40.271 44.3093C39.714 45.0301 39.1365 46.0287 38.4977 47.1312L39.3629 47.6325C40.0145 46.5081 40.5552 45.5769 41.0623 44.9207L40.271 44.3093ZM43.0313 42.555C41.7049 42.7009 40.8439 43.5679 40.271 44.3093L41.0623 44.9207C41.5847 44.2447 42.227 43.6495 43.1407 43.549L43.0313 42.555ZM43.9547 42.5607C43.6482 42.5232 43.3383 42.5213 43.0313 42.555L43.1407 43.549C43.3709 43.5237 43.6033 43.5251 43.8332 43.5533L43.9547 42.5607ZM46.6933 44.3485C46.1296 43.6002 45.2793 42.7228 43.9547 42.5607L43.8332 43.5533C44.7456 43.665 45.3805 44.2679 45.8946 44.9503L46.6933 44.3485ZM48.4318 47.1915C47.8066 46.0815 47.2414 45.076 46.6933 44.3486L45.8946 44.9503C46.3936 45.6126 46.9228 46.5501 47.5605 47.6823L48.4318 47.1915ZM48.4315 47.191L48.4315 47.1909L47.5609 47.6829L47.561 47.6831L48.4315 47.191ZM48.4328 47.1933L48.4327 47.1931L47.5598 47.6809L47.5599 47.6811L48.4328 47.1933ZM48.4436 47.2137L48.4436 47.2136L47.5492 47.6608L47.5492 47.6609L48.4436 47.2137ZM48.4827 47.2818L48.432 47.1919L47.5608 47.6827L47.6114 47.7726L48.4827 47.2818ZM48.81 47.8629L48.4827 47.2818L47.6114 47.7726L47.9388 48.3537L48.81 47.8629ZM52.364 39.7762L47.9358 47.8683L48.813 48.3483L53.2412 40.2562L52.364 39.7762ZM53.6208 38.0281C53.3574 38.211 53.1598 38.4422 52.972 38.7239C52.7893 38.998 52.5986 39.3475 52.364 39.7762L53.2412 40.2562C53.484 39.8126 53.6512 39.5079 53.8041 39.2785C53.9518 39.0569 54.0673 38.9355 54.1912 38.8495L53.6208 38.0281ZM53.8647 37.8786C53.7806 37.9238 53.6992 37.9737 53.6208 38.0281L54.1912 38.8495C54.2382 38.8168 54.2871 38.7869 54.3375 38.7598L53.8647 37.8786ZM55.9928 37.5526C55.5044 37.567 55.1063 37.5783 54.7792 37.6166C54.4429 37.6559 54.1473 37.727 53.8647 37.8786L54.3375 38.7598C54.4704 38.6885 54.631 38.6407 54.8955 38.6098C55.1693 38.5777 55.5167 38.5671 56.0222 38.5522L55.9928 37.5526ZM69.7818 37.1472L55.9928 37.5526L56.0222 38.5522L69.8112 38.1468L69.7818 37.1472ZM67.8163 35.0094L69.3558 37.8831L70.2373 37.4109L68.6978 34.5372L67.8163 35.0094ZM67.7683 34.9198L67.8163 35.0095L68.6978 34.5372L68.6498 34.4476L67.7683 34.9198ZM67.7705 34.9239L67.7706 34.924L68.6475 34.4434L68.6475 34.4433L67.7705 34.9239ZM67.774 34.9301L67.774 34.9302L68.644 34.437L68.6439 34.437L67.774 34.9301ZM67.7669 34.9171L67.767 34.9173L68.6509 34.4498L68.6508 34.4496L67.7669 34.9171ZM66.355 32.0367C66.6655 32.8637 67.1917 33.8437 67.7681 34.9195L68.6496 34.4472C68.0613 33.3493 67.573 32.4358 67.2912 31.6852L66.355 32.0367ZM66.296 28.8469C65.76 30.0278 66.0327 31.1782 66.355 32.0367L67.2912 31.6852C66.9993 30.9077 66.8368 30.075 67.2066 29.2602L66.296 28.8469ZM66.7612 28.0699C66.5772 28.3105 66.4211 28.5711 66.296 28.8469L67.2066 29.2602C67.3004 29.0534 67.4175 28.8579 67.5555 28.6774L66.7612 28.0699ZM69.6008 26.6157C68.6918 26.737 67.549 27.0399 66.7612 28.0699L67.5555 28.6774C68.0991 27.9667 68.9099 27.7168 69.7331 27.6069L69.6008 26.6157ZM72.8096 26.5C71.589 26.4999 70.4765 26.4988 69.6008 26.6157L69.7331 27.6069C70.5279 27.5009 71.5638 27.4999 72.8096 27.5L72.8096 26.5ZM101.531 55.5H105.483V54.5H101.531V55.5ZM91.2432 39.1666L101.105 55.2612L101.958 54.7388L92.0959 38.6442L91.2432 39.1666ZM90.2139 37.7948C90.3435 37.8749 90.4662 37.9913 90.6264 38.2076C90.7922 38.4314 90.9762 38.7308 91.2432 39.1666L92.0959 38.6442C91.8378 38.223 91.6279 37.8796 91.4299 37.6123C91.2263 37.3375 91.0152 37.1145 90.7397 36.9442L90.2139 37.7948ZM90.0616 37.7124C90.1139 37.7369 90.1648 37.7644 90.2139 37.7948L90.7397 36.9442C90.6578 36.8936 90.573 36.8477 90.4858 36.8068L90.0616 37.7124ZM88.3501 37.6017C88.8611 37.5867 89.2123 37.5768 89.4904 37.5931C89.7591 37.6088 89.9237 37.6478 90.0616 37.7124L90.4858 36.8068C90.1925 36.6695 89.8903 36.6148 89.5488 36.5948C89.2167 36.5754 88.8144 36.5877 88.3207 36.6022L88.3501 37.6017ZM73.1618 38.0483L88.3501 37.6017L88.3207 36.6022L73.1324 37.0487L73.1618 38.0483ZM70.4608 33.5928L72.7064 37.7846L73.5879 37.3124L71.3422 33.1206L70.4608 33.5928ZM69.1636 30.9823C69.3954 31.5995 69.8236 32.4033 70.4608 33.5928L71.3422 33.1206C70.6904 31.9038 70.3024 31.1704 70.0998 30.6308L69.1636 30.9823ZM68.9928 30.2703C68.992 30.4098 69.0308 30.6284 69.1636 30.9823L70.0998 30.6308C69.9857 30.3269 69.993 30.2399 69.9928 30.2761L68.9928 30.2703ZM69.1176 29.9287C69.0915 29.9662 69.068 30.0055 69.0472 30.0464L69.9384 30.5L69.9384 30.5L69.1176 29.9287ZM69.9977 29.5893C69.623 29.6393 69.412 29.7084 69.2894 29.775L69.7667 30.6537C69.7349 30.6709 69.8082 30.6235 70.1299 30.5806L69.9977 29.5893ZM72.9113 29.5C71.5619 29.5 70.6511 29.5021 69.9977 29.5893L70.1299 30.5806C70.7012 30.5043 71.5309 30.5 72.9113 30.5V29.5ZM93.438 29.5H72.9113V30.5H93.438V29.5ZM94.5195 29.5224C94.2721 29.5009 93.9503 29.5 93.438 29.5V30.5C93.9688 30.5 94.239 30.5018 94.4326 30.5187L94.5195 29.5224ZM94.7739 29.5601C94.7153 29.5459 94.6354 29.5326 94.5195 29.5224L94.4326 30.5187C94.5145 30.5258 94.5418 30.5328 94.5375 30.5318L94.7739 29.5601ZM94.8462 29.5816C94.8262 29.5743 94.8025 29.5671 94.7738 29.5601L94.5375 30.5318C94.5343 30.531 94.5235 30.5282 94.5073 30.5224L94.8462 29.5816ZM94.8526 29.5839L94.8514 29.5835L94.5022 30.5205L94.5033 30.5209L94.8526 29.5839ZM94.8229 29.5739L94.8228 29.5738L94.5331 30.531L94.5332 30.531L94.8229 29.5739ZM94.8952 29.602L94.8951 29.602L94.4611 30.5029L94.4612 30.5029L94.8952 29.602ZM95 29.6615C94.9682 29.6408 94.9352 29.6219 94.9012 29.605L94.4551 30.5L94.4552 30.5L95 29.6615ZM95.0656 29.7123L95.0655 29.7122L94.3898 30.4493L94.3899 30.4494L95.0656 29.7123ZM95.0431 29.6929L95.0421 29.6921L94.4133 30.4696L94.4143 30.4704L95.0431 29.6929ZM95.1031 29.7483C95.0826 29.7271 95.0644 29.7105 95.0481 29.6969L94.4093 30.4663C94.3961 30.4554 94.3883 30.4476 94.386 30.4453L95.1031 29.7483ZM95.2647 29.9483C95.1972 29.8536 95.1451 29.7915 95.1031 29.7483L94.386 30.4453C94.3829 30.4421 94.4028 30.462 94.4506 30.5289L95.2647 29.9483ZM95.8331 30.8686C95.5731 30.4273 95.4089 30.1505 95.2647 29.9483L94.4506 30.5289C94.5634 30.6872 94.7021 30.9191 94.9716 31.3763L95.8331 30.8686ZM107.878 51.3086L95.8331 30.8686L94.9716 31.3763L107.017 51.8163L107.878 51.3086ZM109.34 53.9724C109.073 53.3397 108.591 52.5187 107.878 51.3086L107.017 51.8163C107.745 53.0532 108.184 53.8054 108.419 54.3617L109.34 53.9724ZM109.547 54.7019C109.542 54.56 109.494 54.336 109.34 53.9724L108.419 54.3617C108.551 54.6755 108.549 54.77 108.548 54.7368L109.547 54.7019ZM109.432 55.0513C109.456 55.0153 109.478 54.9777 109.497 54.9389L108.598 54.4999C108.598 54.5 108.598 54.5 108.598 54.5001L109.432 55.0513ZM108.52 55.4071C108.911 55.3548 109.129 55.2829 109.254 55.2151L108.776 54.3364C108.806 54.3205 108.726 54.3708 108.388 54.4158L108.52 55.4071ZM105.483 55.5C106.888 55.5 107.839 55.4979 108.52 55.4071L108.388 54.4158C107.789 54.4957 106.919 54.5 105.483 54.5V55.5ZM74.7447 41.003L88.4383 40.6004L88.4089 39.6009L74.7153 40.0035L74.7447 41.003ZM82.2922 53.5606L75.1708 40.2671L74.2893 40.7394L81.4108 54.0328L82.2922 53.5606ZM82.8017 54.4688C82.6897 54.2985 82.5541 54.0494 82.2922 53.5606L81.4108 54.0328C81.6636 54.5048 81.8236 54.8014 81.9662 55.0183L82.8017 54.4688ZM82.8664 54.5592C82.8694 54.5626 82.8492 54.541 82.8017 54.4688L81.9662 55.0183C82.0331 55.12 82.0851 55.1866 82.1274 55.233L82.8664 54.5592ZM82.8684 54.5614L82.8619 54.5544L82.1319 55.2378L82.1384 55.2448L82.8684 54.5614ZM82.8636 54.5563L82.8606 54.5532L82.1462 55.2529L82.1492 55.256L82.8636 54.5563ZM82.8429 54.5366C82.85 54.5429 82.8559 54.5485 82.8605 54.5532L82.1523 55.2591C82.1637 55.2706 82.1739 55.28 82.1827 55.2878L82.8429 54.5366ZM82.8442 54.5378L82.8433 54.5371L82.1823 55.2874L82.1832 55.2882L82.8442 54.5378ZM82.7955 54.5L82.7955 54.5L82.2319 55.326C82.2644 55.3482 82.2983 55.3685 82.3333 55.3868L82.7955 54.5ZM82.7522 54.48L82.7517 54.4798L82.3771 55.407L82.3776 55.4072L82.7522 54.48ZM82.745 54.4771L82.7442 54.4769L82.3856 55.4103L82.3863 55.4106L82.745 54.4771ZM82.7331 54.4727L82.7284 54.4711L82.4029 55.4167L82.4077 55.4183L82.7331 54.4727ZM82.7099 54.4655C82.7115 54.466 82.7164 54.4672 82.7239 54.4697L82.4169 55.4214C82.4315 55.4261 82.4475 55.4307 82.4649 55.4351L82.7099 54.4655ZM82.8201 54.4798C82.7341 54.4721 82.7054 54.4644 82.7099 54.4655L82.4649 55.4351C82.5257 55.4504 82.6091 55.4648 82.7303 55.4758L82.8201 54.4798ZM83.8613 54.5C83.3067 54.5 83.0231 54.4981 82.8201 54.4798L82.7303 55.4758C82.9888 55.4991 83.3258 55.5 83.8613 55.5V54.5ZM98.0131 54.5H83.8613V55.5H98.0131V54.5ZM88.6853 40.734L97.5867 55.2612L98.4394 54.7388L89.5379 40.2116L88.6853 40.734ZM88.4505 40.3527C88.5167 40.459 88.5921 40.582 88.6853 40.734L89.5379 40.2116C89.4452 40.0603 89.3678 39.934 89.2993 39.824L88.4505 40.3527ZM88.4383 40.6004C88.6165 40.5952 88.7607 40.591 88.8859 40.5883L88.8639 39.5885C88.7343 39.5913 88.5862 39.5957 88.4089 39.6009L88.4383 40.6004ZM70.9387 40.8379L78.7663 55.4494L79.6478 54.9772L71.8202 40.3657L70.9387 40.8379ZM57.8717 41.4991L71.3941 41.1016L71.3647 40.102L57.8423 40.4996L57.8717 41.4991ZM73.6769 67.2489L58.2894 40.7483L57.4246 41.2504L72.8121 67.7511L73.6769 67.2489ZM105.672 67H73.2445V68H105.672V67ZM99.425 58.2612L105.246 67.7612L106.099 67.2388L100.278 57.7388L99.425 58.2612ZM83.8613 58.5H99.8513V57.5H83.8613V58.5ZM83.8076 58.5L83.8613 58.5L83.8612 57.5L83.8075 57.5L83.8076 58.5ZM82.4609 58.4637C82.8697 58.5005 83.3421 58.5001 83.8076 58.5L83.8075 57.5C83.3287 57.5001 82.9055 57.4997 82.5507 57.4677L82.4609 58.4637ZM80.9479 58.0477C81.4783 58.324 81.9987 58.422 82.4609 58.4637L82.5507 57.4677C82.1629 57.4327 81.7836 57.3555 81.4098 57.1608L80.9479 58.0477ZM80.5408 57.804C80.6715 57.8932 80.8075 57.9746 80.9479 58.0477L81.4098 57.1608C81.3045 57.1059 81.2025 57.0449 81.1045 56.978L80.5408 57.804ZM79.4597 56.6667C79.7146 57.0544 80.0468 57.4668 80.5408 57.804L81.1045 56.978C80.7563 56.7404 80.5091 56.4425 80.2952 56.1172L79.4597 56.6667ZM78.7918 55.4971C79.0116 55.9073 79.2341 56.3238 79.4597 56.6667L80.2952 56.1172C80.0995 55.8197 79.8993 55.4469 79.6734 55.025L78.7918 55.4971ZM78.8067 55.523L78.8068 55.5231L79.6584 54.999L79.6584 54.9989L78.8067 55.523ZM78.7853 55.4844L78.7854 55.4846L79.6798 55.0373L79.6797 55.0372L78.7853 55.4844ZM78.7913 55.496L78.7913 55.4961L79.6737 55.0255L79.6736 55.0254L78.7913 55.496ZM78.7663 55.4494L78.7917 55.4968L79.6732 55.0246L79.6478 54.9772L78.7663 55.4494ZM56.2916 96.8522L71.5133 69.9904L70.6433 69.4973L55.4216 96.3592L56.2916 96.8522ZM56.2829 96.3445L49.8478 85.8424L48.9952 86.3649L55.4303 96.867L56.2829 96.3445ZM49.8435 86.3717L58.9379 72.0563L58.0938 71.5201L48.9995 85.8355L49.8435 86.3717ZM58.9379 72.0563L58.9667 72.0109L58.1227 71.4746L58.0938 71.52L58.9379 72.0563ZM58.9734 72L58.9735 72L58.116 71.4855L58.1159 71.4855L58.9734 72ZM58.9667 72.0109C59.2164 71.618 59.47 71.2196 59.6581 70.8547L58.7693 70.3965C58.6061 70.7131 58.3794 71.0705 58.1227 71.4746L58.9667 72.0109ZM59.6581 70.8547C59.8708 70.4423 60.0671 69.9505 60.1183 69.3546L59.122 69.2689C59.0859 69.6889 58.9477 70.0505 58.7693 70.3965L59.6581 70.8547ZM60.1183 69.3546C60.1319 69.1969 60.1361 69.0385 60.1309 68.8803L59.1314 68.9132C59.1353 69.0318 59.1322 69.1506 59.122 69.2689L60.1183 69.3546ZM60.1309 68.8803C60.1112 68.2825 59.9412 67.781 59.7507 67.3579L58.8389 67.7685C58.9987 68.1235 59.1176 68.4919 59.1314 68.9132L60.1309 68.8803ZM59.7507 67.3579C59.5821 66.9836 59.3499 66.5723 59.1214 66.1668L58.2502 66.6577C58.4852 67.0748 58.6926 67.4437 58.8389 67.7685L59.7507 67.3579ZM59.1214 66.1668L59.095 66.1199L58.2238 66.6108L58.2502 66.6577L59.1214 66.1668ZM59.095 66.12L50.5448 50.9422L49.6735 51.433L58.2238 66.6108L59.095 66.12ZM50.5478 51.4277L55.494 42.3888L54.6168 41.9088L49.6705 50.9476L50.5478 51.4277ZM54.623 42.3999L70.6459 69.9949L71.5107 69.4928L55.4878 41.8977L54.623 42.3999ZM73.663 70.2535L57.8905 98.0874L58.7605 98.5804L74.5331 70.7465L73.663 70.2535ZM69.6464 97.5009L58.3108 97.8341L58.3402 98.8337L69.6758 98.5004L69.6464 97.5009ZM77.4844 83.4504L69.2281 97.7507L70.0942 98.2507L78.3504 83.9504L77.4844 83.4504ZM77.5112 83.4039L77.4844 83.4505L78.3504 83.9504L78.3773 83.9038L77.5112 83.4039ZM77.5054 83.4143L77.5053 83.4144L78.3832 83.8933L78.3833 83.8932L77.5054 83.4143ZM77.5086 83.4084L77.5085 83.4086L78.3801 83.8989L78.3802 83.8987L77.5086 83.4084ZM77.5159 83.396L77.5157 83.3963L78.3732 83.9108L78.3733 83.9105L77.5159 83.396ZM78.2161 82.2558C77.9798 82.5913 77.7442 83.0004 77.5116 83.4033L78.3776 83.9032C78.6168 83.4888 78.8287 83.1227 79.0337 82.8316L78.2161 82.2558ZM79.3328 81.1535C78.8283 81.4747 78.4832 81.8764 78.2161 82.2558L79.0337 82.8316C79.2578 82.5132 79.5144 82.2234 79.8699 81.997L79.3328 81.1535ZM79.7474 80.9228C79.6047 80.9914 79.4663 81.0685 79.3328 81.1535L79.8699 81.997C79.9701 81.9332 80.0739 81.8754 80.1809 81.824L79.7474 80.9228ZM81.2729 80.5552C80.8096 80.5821 80.2864 80.6635 79.7474 80.9228L80.1809 81.824C80.5607 81.6412 80.9423 81.5761 81.331 81.5535L81.2729 80.5552ZM82.62 80.5616C82.1548 80.5468 81.6827 80.5313 81.2729 80.5552L81.331 81.5535C81.6866 81.5328 82.1096 81.5458 82.5881 81.5611L82.62 80.5616ZM82.6737 80.5633L82.62 80.5616L82.5881 81.5611L82.6419 81.5628L82.6737 80.5633ZM98.8403 81.0774L82.6737 80.5633L82.6419 81.5628L98.8086 82.0769L98.8403 81.0774ZM104.448 70.26L98.3858 81.3372L99.2631 81.8172L105.325 70.74L104.448 70.26ZM74.098 71L104.886 71V70L74.098 70V71ZM47.1134 50.9634L45.8689 48.7542L44.9976 49.245L46.2421 51.4542L47.1134 50.9634ZM37.7155 68.6279L47.1164 51.4488L46.2391 50.9687L36.8383 68.1478L37.7155 68.6279ZM37.037 70.203C37.0421 70.0508 37.0821 69.8864 37.1901 69.6399C37.3018 69.3848 37.4701 69.0763 37.7155 68.6279L36.8383 68.1478C36.6012 68.5811 36.4076 68.934 36.2741 69.2387C36.1369 69.552 36.0483 69.846 36.0376 70.1697L37.037 70.203ZM37.0413 70.3761C37.0365 70.3185 37.0351 70.2607 37.037 70.203L36.0376 70.1697C36.0344 70.266 36.0367 70.3623 36.0447 70.4583L37.0413 70.3761ZM37.7962 71.9161C37.5291 71.4802 37.3459 71.1804 37.2218 70.931C37.1018 70.6901 37.0538 70.5279 37.0413 70.3761L36.0447 70.4583C36.0713 70.7811 36.1741 71.0705 36.3265 71.3767C36.4748 71.6745 36.6854 72.0174 36.9435 72.4386L37.7962 71.9161ZM46.3119 85.8137L37.7962 71.9161L36.9435 72.4386L45.4592 86.3362L46.3119 85.8137ZM43.9715 90.0202L46.3076 86.3431L45.4635 85.8068L43.1274 89.484L43.9715 90.0202ZM42.3338 92.4317C42.7578 91.9268 43.2479 91.1592 43.9715 90.0202L43.1274 89.484C42.3872 90.6492 41.9387 91.3472 41.568 91.7885L42.3338 92.4317ZM41.7973 92.93C41.9192 92.8622 42.0906 92.7211 42.3337 92.4317L41.568 91.7885C41.3592 92.0371 41.2799 92.0734 41.3115 92.0559L41.7973 92.93ZM41.4383 92.9889C41.4838 92.9932 41.5297 92.9944 41.5755 92.9925L41.5332 91.9934L41.5333 91.9934L41.4383 92.9889ZM40.7108 92.3887C40.9382 92.6906 41.1019 92.8406 41.2202 92.9147L41.7514 92.0675C41.7821 92.0867 41.7048 92.0462 41.5094 91.7869L40.7108 92.3887ZM39.2029 89.894C39.8652 91.0697 40.314 91.8621 40.7108 92.3887L41.5094 91.7869C41.1626 91.3266 40.7516 90.6059 40.0741 89.4032L39.2029 89.894ZM29.128 72.0098L39.2029 89.894L40.0741 89.4032L29.9992 71.519L29.128 72.0098ZM28.6167 71.0566C28.7193 71.2827 28.8765 71.5635 29.128 72.0098L29.9992 71.519C29.7387 71.0566 29.6077 70.8203 29.5273 70.6433L28.6167 71.0566ZM28.5247 70.8165C28.541 70.8745 28.5686 70.9506 28.6167 71.0566L29.5273 70.6433C29.4934 70.5685 29.4861 70.5412 29.4873 70.5455L28.5247 70.8165ZM28.5079 70.7432C28.5114 70.764 28.5167 70.788 28.5247 70.8164L29.4873 70.5456C29.4877 70.5469 29.4886 70.5504 29.4898 70.5557C29.4911 70.5615 29.4925 70.5683 29.4938 70.5761L28.5079 70.7432ZM28.5067 70.7357L28.5069 70.737L29.4949 70.5823L29.4947 70.5811L28.5067 70.7357ZM28.5121 70.7647L28.5121 70.7648L29.4892 70.552L29.4892 70.5519L28.5121 70.7647ZM28.502 70.6951L28.502 70.6952L29.4993 70.6214L29.4993 70.6213L28.502 70.6951ZM28.5007 70.6504L28.5007 70.6504L29.5006 70.666L29.5006 70.666L28.5007 70.6504ZM28.502 70.5696C28.4996 70.6075 28.4994 70.6456 28.5013 70.6835L29.5 70.6328L29.5 70.6328L28.502 70.5696ZM28.5138 70.4888L28.5138 70.4889L29.4882 70.7135L29.4883 70.7134L28.5138 70.4888ZM28.5082 70.5166L28.508 70.5178L29.494 70.6844L29.4943 70.6831L28.5082 70.5166ZM28.5134 70.4901L28.5122 70.4959L29.4903 70.7039L29.4915 70.698L28.5134 70.4901ZM28.5187 70.4675L28.5173 70.4731L29.4876 70.715L29.489 70.7094L28.5187 70.4675ZM28.5251 70.444L28.5223 70.4539L29.4854 70.723L29.4882 70.7132L28.5251 70.444ZM28.622 70.1983C28.5726 70.3036 28.544 70.3795 28.527 70.4373L29.4862 70.7199C29.485 70.7242 29.4926 70.6971 29.5275 70.6226L28.622 70.1983ZM29.1448 69.2514C28.888 69.6945 28.7273 69.9734 28.622 70.1982L29.5275 70.6226C29.6099 70.4466 29.7439 70.212 30.01 69.7528L29.1448 69.2514ZM41.0415 48.7247L29.1448 69.2514L30.01 69.7528L41.9067 49.2261L41.0415 48.7247ZM42.6449 46.1436C42.2249 46.6871 41.7458 47.5095 41.0415 48.7247L41.9067 49.2261C42.6266 47.984 43.0669 47.2329 43.4362 46.7551L42.6449 46.1436ZM43.1789 45.6051C43.0576 45.6791 42.8862 45.8313 42.6449 46.1436L43.4362 46.7551C43.6445 46.4855 43.7281 46.4414 43.6998 46.4587L43.1789 45.6051ZM43.5396 45.5336C43.4965 45.5305 43.4532 45.5302 43.4099 45.5328L43.4687 46.531L43.4688 46.531L43.5396 45.5336ZM44.2972 46.1537C44.0597 45.8384 43.8902 45.6842 43.7699 45.6087L43.2385 46.4559C43.2104 46.4382 43.2936 46.4834 43.4985 46.7555L44.2972 46.1537ZM45.8689 48.7542C45.1795 47.5305 44.7105 46.7023 44.2972 46.1537L43.4985 46.7555C43.8619 47.2378 44.293 47.9942 44.9976 49.245L45.8689 48.7542ZM48.1028 82.9946L40.3541 70.3487L39.5015 70.8712L47.2502 83.517L48.1028 82.9946ZM55.5616 69.9114L47.2544 82.9877L48.0985 83.5239L56.4056 70.4476L55.5616 69.9114ZM56.1028 69.0217C56.0095 69.2028 55.859 69.4433 55.5616 69.9114L56.4056 70.4476C56.6928 69.9956 56.8727 69.7107 56.9917 69.48L56.1028 69.0217ZM56.1499 68.921C56.1513 68.9167 56.1424 68.9449 56.1028 69.0217L56.9917 69.48C57.0475 69.3718 57.08 69.2937 57.0996 69.2342L56.1499 68.921ZM56.1417 68.953C56.1454 68.9353 56.1488 68.9242 56.1499 68.9211L57.0996 69.2341C57.1092 69.205 57.1158 69.1802 57.1203 69.1586L56.1417 68.953ZM56.1422 68.9507L56.1419 68.9518L57.12 69.1598L57.1203 69.1586L56.1422 68.9507ZM56.1331 69.0118V69.0118L57.1294 69.0975C57.1328 69.0582 57.1338 69.0187 57.1325 68.9792L56.1331 69.0118ZM56.1369 69.0598L56.137 69.0603L57.1286 68.9308L57.1285 68.9303L56.1369 69.0598ZM56.1379 69.0667L56.138 69.0675L57.1274 68.9225L57.1273 68.9217L56.1379 69.0667ZM56.1431 69.0954C56.1417 69.0892 56.1401 69.081 56.1385 69.071L57.1267 68.9175C57.1248 68.9051 57.1222 68.8911 57.1186 68.8753L56.1431 69.0954ZM56.1451 69.1033C56.1448 69.1022 56.144 69.0995 56.1431 69.0953L57.1186 68.8755C57.1161 68.8644 57.1133 68.853 57.11 68.841L56.1451 69.1033ZM56.1034 69.0003C56.1389 69.0791 56.1463 69.1078 56.1451 69.1033L57.11 68.8409C57.0936 68.7804 57.0652 68.7007 57.0152 68.5897L56.1034 69.0003ZM55.61 68.0832C55.8822 68.5665 56.0197 68.8145 56.1034 69.0003L57.0152 68.5897C56.9087 68.3531 56.744 68.059 56.4812 67.5924L55.61 68.0832ZM47.9768 54.5335L55.61 68.0832L56.4812 67.5924L48.8481 54.0427L47.9768 54.5335ZM40.3473 70.068L48.8511 54.5281L47.9738 54.0481L39.47 69.588L40.3473 70.068ZM40.1332 70.4613C40.1924 70.351 40.2617 70.2244 40.3473 70.068L39.47 69.588C39.3849 69.7436 39.3137 69.8736 39.2524 69.9877L40.1332 70.4613ZM40.3541 70.3487C40.261 70.1967 40.1856 70.0736 40.121 69.9664L39.2645 70.4826C39.3314 70.5935 39.4088 70.7199 39.5015 70.8712L40.3541 70.3487ZM70.9893 100.7L69.2716 103.675L70.1376 104.175L71.8554 101.2L70.9893 100.7ZM89.7937 99.9098L71.4076 100.45L71.437 101.45L89.8231 100.909L89.7937 99.9098ZM91.4784 99.7022C91.3455 99.7736 91.1849 99.8213 90.9204 99.8523C90.6466 99.8843 90.2992 99.895 89.7937 99.9098L89.8231 100.909C90.3115 100.895 90.7096 100.884 91.0367 100.845C91.373 100.806 91.6687 100.735 91.9513 100.583L91.4784 99.7022ZM91.6248 99.6125C91.5778 99.6452 91.5289 99.6752 91.4784 99.7023L91.9513 100.583C92.0353 100.538 92.1167 100.488 92.1951 100.434L91.6248 99.6125ZM92.5747 98.2058C92.3319 98.6495 92.1647 98.9541 92.0118 99.1835C91.8641 99.4051 91.7487 99.5265 91.6248 99.6126L92.1952 100.434C92.4586 100.251 92.6561 100.02 92.8439 99.7381C93.0266 99.4641 93.2174 99.1145 93.4519 98.6859L92.5747 98.2058ZM100.133 84.3942L92.5747 98.2058L93.4519 98.6859L101.01 84.8743L100.133 84.3942ZM105.755 84.2988L100.587 84.1345L100.555 85.134L105.723 85.2983L105.755 84.2988ZM108.664 84.4807C108.014 84.3728 107.104 84.3417 105.755 84.2988L105.723 85.2983C107.103 85.3422 107.932 85.3729 108.501 85.4672L108.664 84.4807ZM109.366 84.6888C109.246 84.6183 109.037 84.5426 108.664 84.4807L108.501 85.4672C108.821 85.5204 108.892 85.5702 108.861 85.5519L109.366 84.6888ZM109.6 84.9678C109.58 84.9263 109.558 84.8862 109.533 84.8478L108.695 85.3929L108.695 85.3928L109.6 84.9678ZM109.454 85.8995C109.598 85.55 109.643 85.3328 109.647 85.1933L108.647 85.1673C108.648 85.1312 108.653 85.2183 108.529 85.5185L109.454 85.8995ZM108.074 88.4674C108.749 87.2988 109.202 86.509 109.454 85.8995L108.529 85.5185C108.309 86.0513 107.898 86.772 107.208 87.9674L108.074 88.4674ZM97.8107 106.244L108.074 88.4674L107.208 87.9674L96.9447 105.744L97.8107 106.244ZM97.2506 107.169C97.3929 106.966 97.5546 106.688 97.8107 106.244L96.9447 105.744C96.6793 106.204 96.5427 106.437 96.4313 106.596L97.2506 107.169ZM97.0907 107.371C97.1324 107.327 97.1839 107.265 97.2506 107.169L96.4313 106.596C96.3841 106.663 96.3644 106.684 96.3675 106.68L97.0907 107.371ZM97.0361 107.423C97.0524 107.409 97.0704 107.392 97.0907 107.371L96.3675 106.68C96.3697 106.678 96.3775 106.67 96.3905 106.659L97.0361 107.423ZM97.0303 107.428L97.0313 107.427L96.3954 106.655L96.3944 106.656L97.0303 107.428ZM97.0502 107.41L97.0502 107.41L96.3745 106.673L96.3744 106.673L97.0502 107.41ZM97.0063 107.446L97.0064 107.446L96.4182 106.637L96.4181 106.638L97.0063 107.446ZM96.8899 107.516C96.9237 107.499 96.9565 107.48 96.9882 107.459L96.4362 106.625L96.4361 106.625L96.8899 107.516ZM96.821 107.545L96.8211 107.545L96.5049 106.596L96.5048 106.596L96.821 107.545ZM96.841 107.538L96.8422 107.537L96.4836 106.604L96.4824 106.604L96.841 107.538ZM96.8221 107.545L96.8256 107.543L96.4978 106.599L96.4943 106.6L96.8221 107.545ZM96.7633 107.562C96.7818 107.557 96.7987 107.552 96.8141 107.547L96.5023 106.597C96.5109 106.594 96.5164 106.593 96.5181 106.593L96.7633 107.562ZM96.5091 107.602C96.625 107.591 96.7048 107.577 96.7632 107.562L96.5181 106.592C96.5225 106.591 96.4952 106.599 96.4134 106.607L96.5091 107.602ZM95.4279 107.634C95.9402 107.629 96.262 107.626 96.5091 107.602L96.4134 106.607C96.2199 106.625 95.9497 106.629 95.419 106.634L95.4279 107.634ZM71.7039 107.845L95.4279 107.634L95.419 106.634L71.695 106.845L71.7039 107.845ZM68.6661 107.779C69.3477 107.864 70.2994 107.858 71.7039 107.845L71.695 106.845C70.2594 106.858 69.3888 106.862 68.7895 106.787L68.6661 107.779ZM67.9307 107.594C68.0561 107.661 68.2744 107.731 68.6661 107.779L68.7895 106.787C68.4514 106.745 68.3709 106.695 68.4002 106.711L67.9307 107.594ZM67.6854 107.32C67.7048 107.359 67.7266 107.396 67.7508 107.432L68.5801 106.873H68.5801L67.6854 107.32ZM67.8335 106.352C67.6831 106.717 67.6366 106.941 67.6329 107.083L68.6326 107.109C68.6317 107.143 68.6283 107.048 68.7581 106.733L67.8335 106.352ZM69.2716 103.675C68.5693 104.892 68.0953 105.717 67.8335 106.352L68.7581 106.733C68.9882 106.175 69.4198 105.419 70.1376 104.175L69.2716 103.675ZM96.7714 84.2873L89.943 96.7656L90.8202 97.2457L97.6487 84.7674L96.7714 84.2873ZM82.5466 84.5613L97.1942 85.0271L97.2259 84.0276L82.5784 83.5618L82.5466 84.5613ZM81.5053 84.5484C81.7087 84.5366 81.9922 84.5437 82.5466 84.5613L82.5784 83.5618C82.0432 83.5448 81.7063 83.535 81.4472 83.5501L81.5053 84.5484ZM81.3946 84.5592C81.3902 84.5602 81.419 84.5534 81.5053 84.5484L81.4472 83.5501C81.3256 83.5572 81.2419 83.5689 81.1806 83.5823L81.3946 84.5592ZM81.4213 84.5517C81.4068 84.5564 81.3973 84.5586 81.3946 84.5592L81.1806 83.5823C81.1544 83.5881 81.1318 83.5943 81.1119 83.6007L81.4213 84.5517ZM81.4232 84.551L81.4241 84.5507L81.1091 83.6017L81.1082 83.6019L81.4232 84.551ZM81.4242 84.5507L81.4253 84.5503L81.1061 83.6026L81.105 83.603L81.4242 84.5507ZM81.4813 84.5275L81.4813 84.5274L81.0479 83.6263C81.0123 83.6434 80.9778 83.6626 80.9445 83.6838L81.4813 84.5275ZM81.5208 84.4996L81.5212 84.4993L80.9047 83.7119L80.9043 83.7122L81.5208 84.4996ZM81.5256 84.4958L81.5263 84.4952L80.8988 83.7166L80.8981 83.7171L81.5256 84.4958ZM81.554 84.4705C81.553 84.4716 81.5503 84.4742 81.5461 84.4782C81.5415 84.4824 81.5361 84.4871 81.53 84.4922L80.8937 83.7207C80.8772 83.7343 80.8584 83.7514 80.8369 83.7736L81.554 84.4705ZM81.4865 84.5588C81.5363 84.4882 81.5572 84.4672 81.5541 84.4705L80.8369 83.7736C80.7931 83.8186 80.739 83.8835 80.6689 83.9831L81.4865 84.5588ZM80.9485 85.4504C81.2258 84.9701 81.3692 84.7254 81.4865 84.5588L80.6689 83.9831C80.5195 84.1953 80.3502 84.4867 80.0824 84.9504L80.9485 85.4504ZM73.6181 98.147L80.9485 85.4504L80.0824 84.9504L72.752 97.647L73.6181 98.147ZM89.7056 96.9111L73.1704 97.3973L73.1997 98.3968L89.7349 97.9107L89.7056 96.9111ZM90.1481 96.8972C90.0244 96.9017 89.8818 96.9059 89.7055 96.9111L89.735 97.9107C89.9103 97.9055 90.0568 97.9012 90.1848 97.8965L90.1481 96.8972ZM89.943 96.7657C89.8583 96.9203 89.7898 97.0455 89.7296 97.1536L90.6033 97.6401C90.6656 97.5281 90.736 97.3996 90.8202 97.2457L89.943 96.7657ZM69.7018 29.7644C69.7716 29.7933 69.8514 29.8453 69.9145 29.932C69.9778 30.0189 70.0032 30.112 70.0089 30.1896C70.0188 30.325 69.9706 30.4234 69.9569 30.4508C69.9227 30.5186 69.8807 30.5619 69.8739 30.5691C69.8476 30.5969 69.8242 30.615 69.8175 30.6202C69.798 30.6351 69.7826 30.6445 69.776 30.6484L69.2673 29.7874C69.2521 29.7965 69.2307 29.8099 69.2076 29.8277C69.1991 29.8342 69.1744 29.8534 69.1473 29.882C69.1402 29.8896 69.0979 29.9332 69.0636 30.0013C69.0498 30.0287 69.0016 30.1273 69.0116 30.2627C69.0173 30.3404 69.0427 30.4335 69.106 30.5204C69.1691 30.6071 69.2489 30.6592 69.3187 30.6881L69.7018 29.7644ZM69.1849 29.8483C69.1948 29.8393 69.2096 29.8268 69.2295 29.813C69.2381 29.8071 69.2561 29.795 69.2806 29.7823C69.2913 29.7767 69.3169 29.7638 69.3515 29.7522C69.3683 29.7466 69.4013 29.7364 69.4444 29.7306C69.4743 29.7266 69.58 29.7138 69.702 29.7644L69.3186 30.688C69.4406 30.7387 69.5464 30.7259 69.5764 30.7219C69.6196 30.7161 69.6528 30.7059 69.6697 30.7002C69.7048 30.6884 69.7308 30.6753 69.7421 30.6695C69.7678 30.6561 69.7873 30.6431 69.7979 30.6358C69.8217 30.6193 69.842 30.6025 69.8584 30.5875L69.1849 29.8483ZM69.1782 30.6388C69.0761 30.5553 69.0375 30.4562 69.0269 30.4278C69.0116 30.3871 69.005 30.3532 69.002 30.3357C68.9959 30.2997 68.9953 30.271 68.9951 30.259C68.9948 30.2313 68.9969 30.2098 68.9981 30.1994C69.0008 30.1755 69.0049 30.1566 69.0081 30.1436L69.9778 30.3882C69.9832 30.3667 69.9884 30.3409 69.9917 30.3123C69.9932 30.2995 69.9954 30.2761 69.995 30.2471C69.9949 30.2345 69.9942 30.2053 69.988 30.1688C69.985 30.1512 69.9784 30.1171 69.9631 30.0763C69.9524 30.0478 69.9137 29.9486 69.8116 29.865L69.1782 30.6388ZM69.9925 30.2868C69.9922 30.2945 69.9912 30.3126 69.9872 30.3368C69.9858 30.3452 69.9809 30.3744 69.9687 30.4109C69.9656 30.4203 69.9472 30.4778 69.9034 30.54C69.8857 30.5651 69.8216 30.654 69.6975 30.709C69.6264 30.7405 69.5325 30.7619 69.4262 30.7472C69.3203 30.7325 69.2369 30.6868 69.1785 30.6391L69.8113 29.8648C69.7529 29.817 69.6694 29.7713 69.5635 29.7566C69.4571 29.7419 69.3632 29.7633 69.2921 29.7949C69.168 29.8499 69.1037 29.9388 69.086 29.964C69.042 30.0264 69.0235 30.0843 69.0202 30.0942C69.0077 30.1317 69.0024 30.1626 69.0006 30.1732C68.9959 30.202 68.9941 30.2273 68.9934 30.245L69.9925 30.2868ZM108.852 55.2287C108.781 55.201 108.698 55.1494 108.632 55.0607C108.566 54.9715 108.54 54.8756 108.535 54.7967C108.526 54.6601 108.576 54.5612 108.589 54.5354C108.623 54.4691 108.664 54.4267 108.671 54.4199C108.696 54.3928 108.719 54.3752 108.726 54.3702C108.744 54.3556 108.759 54.3464 108.766 54.3426L109.28 55.2001C109.295 55.1912 109.316 55.178 109.338 55.1607C109.346 55.1543 109.37 55.1355 109.397 55.1077C109.403 55.1006 109.445 55.0578 109.479 54.9912C109.492 54.9654 109.542 54.8664 109.533 54.7298C109.528 54.6507 109.502 54.5549 109.436 54.4657C109.37 54.3769 109.287 54.3253 109.216 54.2976L108.852 55.2287ZM109.36 55.1405C109.351 55.1492 109.336 55.1614 109.317 55.1749C109.308 55.1808 109.291 55.1926 109.267 55.2053C109.257 55.2108 109.232 55.2237 109.198 55.2354C109.182 55.2411 109.149 55.2515 109.107 55.2577C109.078 55.262 108.974 55.2765 108.852 55.2287L109.216 54.2976C109.094 54.2497 108.989 54.2643 108.961 54.2685C108.918 54.2748 108.886 54.2852 108.869 54.291C108.835 54.3028 108.81 54.3159 108.799 54.3217C108.774 54.335 108.755 54.3478 108.744 54.355C108.721 54.3712 108.702 54.3876 108.686 54.4023L109.36 55.1405ZM109.325 54.3268C109.446 54.4081 109.493 54.5166 109.505 54.5445C109.524 54.5867 109.532 54.6222 109.535 54.6397C109.543 54.6763 109.545 54.7055 109.545 54.7173C109.547 54.7449 109.545 54.7663 109.544 54.7765C109.543 54.8001 109.539 54.8187 109.537 54.8313L108.558 54.6251C108.554 54.6463 108.55 54.6717 108.547 54.7C108.546 54.7125 108.545 54.7358 108.546 54.7646C108.547 54.777 108.549 54.8067 108.556 54.8437C108.56 54.8613 108.568 54.897 108.587 54.9393C108.599 54.9674 108.646 55.0759 108.767 55.1572L109.325 54.3268ZM108.547 54.7247C108.548 54.717 108.548 54.6994 108.551 54.6756C108.552 54.6672 108.556 54.6392 108.566 54.6039C108.569 54.5941 108.583 54.5404 108.62 54.4805C108.635 54.4565 108.688 54.3722 108.795 54.3099C108.856 54.2744 108.943 54.2412 109.05 54.242C109.16 54.243 109.253 54.2793 109.323 54.326L108.769 55.158C108.839 55.2047 108.932 55.2411 109.042 55.242C109.149 55.2429 109.237 55.2096 109.298 55.1741C109.405 55.1118 109.458 55.0274 109.472 55.0033C109.509 54.9432 109.524 54.8891 109.527 54.8788C109.538 54.8426 109.542 54.8129 109.543 54.8022C109.546 54.774 109.547 54.7493 109.547 54.7317L108.547 54.7247ZM109.647 85.1681C109.647 85.1504 109.646 85.1251 109.642 85.0962C109.641 85.0856 109.637 85.0545 109.625 85.0167C109.622 85.0067 109.606 84.9483 109.564 84.8846C109.547 84.8588 109.486 84.768 109.364 84.7089C109.294 84.6751 109.201 84.6505 109.094 84.6616C108.988 84.6727 108.903 84.7156 108.842 84.7614L109.449 85.5565C109.389 85.6023 109.304 85.6452 109.198 85.6563C109.091 85.6674 108.998 85.6428 108.928 85.609C108.806 85.55 108.745 85.4592 108.728 85.4336C108.686 85.37 108.67 85.312 108.667 85.3025C108.656 85.2657 108.652 85.2363 108.651 85.228C108.648 85.2036 108.647 85.1856 108.647 85.1779L109.647 85.1681ZM108.647 85.2047C108.65 85.2333 108.654 85.2587 108.659 85.2795L109.636 85.0665C109.638 85.0788 109.642 85.0975 109.644 85.1214L108.647 85.2047ZM108.837 84.7654C108.733 84.847 108.692 84.9458 108.682 84.9729C108.666 85.0128 108.658 85.0463 108.655 85.0635C108.648 85.0992 108.646 85.128 108.646 85.1406C108.645 85.1694 108.646 85.1927 108.647 85.2058L109.644 85.1202C109.645 85.1308 109.646 85.1522 109.645 85.1797C109.645 85.1916 109.643 85.2198 109.636 85.2552C109.633 85.2722 109.626 85.3055 109.61 85.3453C109.599 85.3722 109.558 85.471 109.454 85.5526L108.837 84.7654ZM108.772 85.4827C108.787 85.4982 108.807 85.5157 108.831 85.533C108.841 85.5407 108.86 85.5543 108.886 85.5686C108.897 85.5748 108.923 85.5888 108.957 85.6017C108.974 85.6079 109.007 85.6192 109.05 85.6263C109.081 85.6312 109.185 85.6469 109.308 85.6004L108.954 84.6652C109.077 84.6187 109.181 84.6344 109.212 84.6394C109.255 84.6464 109.287 84.6576 109.304 84.6638C109.339 84.6765 109.364 84.6903 109.374 84.6962C109.399 84.7098 109.416 84.7225 109.425 84.7288C109.444 84.7432 109.459 84.7562 109.468 84.7656L108.772 85.4827ZM109.406 84.7138L109.4 84.7096L108.84 85.5386L108.847 85.5428L109.406 84.7138ZM109.307 85.601C109.413 85.561 109.527 85.4751 109.589 85.3329C109.645 85.2067 109.633 85.0938 109.622 85.0361C109.601 84.931 109.551 84.8609 109.543 84.8484C109.512 84.8045 109.481 84.7755 109.474 84.7688C109.451 84.747 109.431 84.7315 109.42 84.7238L108.832 85.5329C108.826 85.5279 108.808 85.5146 108.786 85.4943C108.78 85.4883 108.75 85.46 108.72 85.4165C108.711 85.4042 108.661 85.3342 108.641 85.2292C108.629 85.1716 108.618 85.0588 108.673 84.9326C108.735 84.7904 108.849 84.7046 108.956 84.6646L109.307 85.601ZM67.6328 107.114C67.6331 107.131 67.6341 107.155 67.638 107.184C67.6394 107.194 67.6436 107.224 67.6546 107.261C67.6574 107.27 67.6736 107.328 67.7144 107.391C67.7304 107.415 67.7913 107.508 67.9145 107.568C67.9856 107.603 68.0813 107.628 68.1912 107.616C68.3005 107.603 68.3864 107.557 68.4457 107.51L67.8227 106.728C67.882 106.681 67.9679 106.635 68.0771 106.622C68.187 106.61 68.2827 106.635 68.3538 106.67C68.4769 106.73 68.5378 106.823 68.5537 106.847C68.5943 106.91 68.6105 106.967 68.6131 106.976C68.6238 107.012 68.6277 107.04 68.6288 107.048C68.632 107.072 68.6325 107.089 68.6326 107.097L67.6328 107.114ZM68.6247 107.016L68.6237 107.011L67.6417 107.2L67.6428 107.205L68.6247 107.016ZM68.4466 107.509C68.529 107.444 68.5689 107.369 68.5846 107.336C68.6031 107.298 68.6129 107.265 68.6179 107.246C68.6279 107.208 68.6311 107.177 68.6324 107.163C68.6351 107.133 68.6345 107.108 68.634 107.097C68.633 107.07 68.63 107.047 68.6273 107.031L67.6402 107.191C67.6384 107.179 67.6358 107.161 67.6348 107.137C67.6344 107.126 67.6338 107.103 67.6364 107.073C67.6377 107.06 67.6409 107.029 67.6508 106.992C67.6557 106.973 67.6655 106.94 67.684 106.902C67.6997 106.869 67.7395 106.795 67.8219 106.729L68.4466 107.509ZM68.3701 107.587C68.2394 107.653 68.1214 107.64 68.0902 107.637C68.044 107.632 68.0086 107.621 67.9914 107.615C67.9554 107.604 67.929 107.59 67.9184 107.585C67.8937 107.572 67.8757 107.56 67.8673 107.554C67.8478 107.541 67.8334 107.529 67.8239 107.52L68.4915 106.776C68.4755 106.762 68.4557 106.745 68.4324 106.729C68.4221 106.722 68.4025 106.709 68.3766 106.696C68.3655 106.69 68.3386 106.677 68.3023 106.665C68.2849 106.659 68.2494 106.649 68.2031 106.643C68.1718 106.64 68.0537 106.627 67.9229 106.693L68.3701 107.587ZM68.4109 106.717C68.4175 106.721 68.4326 106.73 68.4515 106.744C68.4582 106.75 68.4805 106.767 68.5058 106.793C68.5129 106.8 68.5517 106.839 68.5852 106.9C68.5985 106.925 68.6454 107.012 68.6464 107.136C68.647 107.206 68.6326 107.299 68.578 107.393C68.5221 107.488 68.4432 107.551 68.3671 107.589L67.9258 106.691C67.8498 106.729 67.7708 106.792 67.7149 106.888C67.6603 106.981 67.6459 107.074 67.6465 107.144C67.6475 107.268 67.6944 107.356 67.7078 107.38C67.7414 107.442 67.7805 107.481 67.7879 107.489C67.8139 107.516 67.8375 107.534 67.846 107.54C67.8686 107.557 67.8895 107.57 67.9045 107.579L68.4109 106.717ZM41.0085 92.5611C40.9995 92.4866 41.0053 92.392 41.0493 92.2947C41.0935 92.197 41.1617 92.1288 41.2267 92.0853C41.34 92.0095 41.4499 92.0029 41.4807 92.0014C41.557 91.9978 41.6156 92.0133 41.6251 92.0156C41.6624 92.0249 41.6897 92.0365 41.6974 92.0398C41.72 92.0494 41.7356 92.0582 41.7422 92.062L41.2418 92.9278C41.2571 92.9366 41.2793 92.9486 41.3061 92.96C41.3159 92.9642 41.3448 92.9763 41.3831 92.9859C41.3932 92.9884 41.4522 93.004 41.5287 93.0003C41.5596 92.9988 41.6697 92.9922 41.783 92.9163C41.848 92.8728 41.9162 92.8046 41.9604 92.7069C42.0044 92.6096 42.0103 92.5149 42.0012 92.4404L41.0085 92.5611ZM41.3352 92.9696C41.3226 92.9655 41.3044 92.9588 41.2828 92.9482C41.2733 92.9436 41.254 92.9339 41.2308 92.9187C41.2207 92.9121 41.1968 92.8961 41.1696 92.8715C41.1564 92.8597 41.1313 92.8358 41.1051 92.801C41.0868 92.7766 41.0241 92.691 41.0084 92.5603L42.0013 92.4412C41.9856 92.3104 41.9229 92.2247 41.9045 92.2002C41.8783 92.1653 41.853 92.1413 41.8397 92.1293C41.8122 92.1045 41.7879 92.0882 41.7773 92.0812C41.753 92.0654 41.732 92.0547 41.7204 92.0491C41.6945 92.0364 41.67 92.0271 41.6489 92.0201L41.3352 92.9696ZM42.0272 92.5884C42.0043 92.7182 41.9368 92.8003 41.9175 92.8233C41.8896 92.8565 41.8633 92.8788 41.8497 92.8899C41.8213 92.9128 41.7967 92.9274 41.7864 92.9335C41.7625 92.9473 41.7427 92.956 41.7331 92.9601C41.7109 92.9695 41.6924 92.9752 41.6795 92.9788L41.4165 92.014C41.395 92.0198 41.37 92.0279 41.3434 92.0391C41.3315 92.0442 41.3101 92.0537 41.2851 92.0682C41.2741 92.0745 41.2491 92.0894 41.2205 92.1126C41.2066 92.1238 41.1803 92.1463 41.1523 92.1795C41.1329 92.2026 41.0653 92.2848 41.0424 92.4147L42.0272 92.5884ZM41.321 92.0509C41.3278 92.0474 41.344 92.0394 41.367 92.031C41.3749 92.0281 41.4027 92.0181 41.4403 92.0108C41.45 92.0089 41.509 91.9966 41.5845 92.0041C41.6149 92.0071 41.7238 92.0192 41.8328 92.1001C41.8953 92.1465 41.9603 92.2178 41.9999 92.3179C42.0393 92.4177 42.0404 92.5131 42.0274 92.5876L41.0423 92.4155C41.0293 92.49 41.0304 92.5854 41.0698 92.6852C41.1093 92.7854 41.1743 92.8567 41.2369 92.9031C41.3459 92.984 41.4549 92.9962 41.4854 92.9992C41.5612 93.0067 41.6206 92.9944 41.6308 92.9924C41.6695 92.9849 41.6989 92.9744 41.709 92.9707C41.7364 92.9608 41.7592 92.9499 41.775 92.9419L41.321 92.0509ZM43.9791 45.9526C43.9897 46.0278 43.9855 46.1253 43.9405 46.226C43.8953 46.3272 43.8245 46.3966 43.7584 46.44C43.644 46.5151 43.5335 46.5204 43.5045 46.5215C43.4299 46.5246 43.3726 46.5094 43.3635 46.5071C43.3272 46.498 43.3006 46.4869 43.2931 46.4837C43.2711 46.4744 43.2557 46.4659 43.2491 46.4622L43.7442 45.5933C43.729 45.5847 43.7073 45.5731 43.6811 45.5621C43.6714 45.558 43.6433 45.5463 43.606 45.537C43.5964 45.5346 43.5387 45.5193 43.4639 45.5224C43.4347 45.5235 43.3242 45.5288 43.2097 45.604C43.1435 45.6474 43.0727 45.7168 43.0275 45.818C42.9825 45.9187 42.9783 46.0162 42.9889 46.0916L43.9791 45.9526ZM43.6527 45.5527C43.665 45.5568 43.6828 45.5633 43.704 45.5735C43.7133 45.578 43.7322 45.5874 43.755 45.602C43.7649 45.6084 43.7883 45.6238 43.8151 45.6475C43.828 45.6589 43.8529 45.6819 43.8791 45.7156C43.8968 45.7385 43.9609 45.8226 43.9791 45.9526L42.9889 46.0916C43.0071 46.2216 43.0713 46.3058 43.0891 46.3288C43.1153 46.3625 43.1403 46.3857 43.1533 46.3972C43.1804 46.4211 43.2043 46.4369 43.2147 46.4436C43.2386 46.4589 43.2591 46.4692 43.2705 46.4747C43.2959 46.4869 43.32 46.496 43.3406 46.5028L43.6527 45.5527ZM42.961 45.9856C42.9716 45.8398 43.0425 45.7445 43.0612 45.7199C43.0892 45.683 43.1163 45.6581 43.1298 45.6463C43.1581 45.6214 43.1829 45.6055 43.193 45.5992C43.2164 45.5844 43.2359 45.575 43.2452 45.5707C43.2666 45.5607 43.2845 45.5544 43.2967 45.5506L43.5973 46.5043C43.6179 46.4978 43.642 46.489 43.6677 46.477C43.6791 46.4717 43.7002 46.4615 43.7247 46.4461C43.7353 46.4394 43.7605 46.4232 43.7891 46.3981C43.8028 46.3861 43.8299 46.3612 43.858 46.3242C43.8767 46.2994 43.9477 46.2041 43.9583 46.0582L42.961 45.9856ZM43.6891 46.4649C43.6825 46.4686 43.667 46.4769 43.6449 46.4859C43.6372 46.489 43.611 46.4996 43.5755 46.5081C43.5656 46.5105 43.5117 46.524 43.4414 46.5215C43.4134 46.5205 43.3138 46.5159 43.2068 46.4532C43.1458 46.4174 43.0736 46.3573 43.0217 46.2631C42.9687 46.1668 42.9547 46.0673 42.9611 45.9836L43.9582 46.0603C43.9646 45.9765 43.9507 45.8769 43.8976 45.7806C43.8457 45.6864 43.7735 45.6263 43.7125 45.5905C43.6054 45.5277 43.5057 45.5231 43.4776 45.5221C43.4071 45.5196 43.3527 45.5332 43.3424 45.5357C43.3058 45.5444 43.278 45.5555 43.2682 45.5595C43.2419 45.5702 43.2201 45.5816 43.2048 45.59L43.6891 46.4649Z" fill="white"/>
<defs>
<filter id="filter0_i_104_17" x="0" y="0" width="138" height="138" filterUnits="userSpaceOnUse" color-interpolation-filters="sRGB">
<feFlood flood-opacity="0" result="BackgroundImageFix"/>
<feBlend mode="normal" in="SourceGraphic" in2="BackgroundImageFix" result="shape"/>
<feColorMatrix in="SourceAlpha" type="matrix" values="0 0 0 0 0 0 0 0 0 0 0 0 0 0 0 0 0 0 127 0" result="hardAlpha"/>
<feMorphology radius="7" operator="erode" in="SourceAlpha" result="effect1_innerShadow_104_17"/>
<feOffset/>
<feGaussianBlur stdDeviation="17"/>
<feComposite in2="hardAlpha" operator="arithmetic" k2="-1" k3="1"/>
<feColorMatrix type="matrix" values="0 0 0 0 0.00362849 0 0 0 0 0.531875 0 0 0 0 0.870833 0 0 0 1 0"/>
<feBlend mode="normal" in2="shape" result="effect1_innerShadow_104_17"/>
</filter>
</defs>
</svg>
